<svg xmlns="http://www.w3.org/2000/svg" xmlns:xlink="http://www.w3.org/1999/xlink" width="164" zoomAndPan="magnify" viewBox="65 60 246 150" height="100" preserveAspectRatio="xMidYMid meet" version="1.0"><defs><g/><clipPath id="79f540da86"><path d="M 149 138 L 229 138 L 229 209.484375 L 149 209.484375 Z M 149 138 " clip-rule="nonzero"/></clipPath><clipPath id="b18c818a0e"><path d="M 69.765625 95 L 289 95 L 289 209.484375 L 69.765625 209.484375 Z M 69.765625 95 " clip-rule="nonzero"/></clipPath><clipPath id="26721eda9e"><path d="M 102 81 L 305.265625 81 L 305.265625 209.484375 L 102 209.484375 Z M 102 81 " clip-rule="nonzero"/></clipPath><clipPath id="bb88da0b18"><path d="M 86 65.484375 L 297 65.484375 L 297 209.484375 L 86 209.484375 Z M 86 65.484375 " clip-rule="nonzero"/></clipPath><clipPath id="c77b7046f4"><path d="M 157 71 L 243 71 L 243 209.484375 L 157 209.484375 Z M 157 71 " clip-rule="nonzero"/></clipPath></defs><g clip-path="url(#79f540da86)"><path fill="#eecb96" d="M 149.304688 178.800781 C 149.304688 166.769531 153.054688 156.8125 161.070312 149.257812 C 168.253906 142.480469 177.527344 138.671875 188.054688 138.671875 C 197.375 138.671875 205.089844 142.296875 211.921875 147.746094 C 221.414062 155.308594 228.359375 165.90625 228.359375 179.171875 C 228.359375 190.96875 222.992188 200.503906 215.519531 207.90625 C 208.539062 214.828125 198.503906 219.96875 187.75 219.96875 C 178.234375 219.96875 170.300781 215.617188 163.398438 209.960938 C 154.15625 202.382812 149.304688 191.863281 149.304688 178.800781 Z M 149.304688 178.800781 " fill-opacity="1" fill-rule="evenodd"/></g><g clip-path="url(#b18c818a0e)"><path fill="#f09647" d="M 69.765625 178.734375 L 141.761719 179.515625 L 143.070312 189.75 L 73.242188 207.050781 Z M 272.148438 260.554688 L 225.667969 212.523438 L 229.589844 206.816406 L 288.113281 236.351562 Z M 270.792969 107.78125 L 225.105469 147.050781 L 220.324219 142.085938 L 259.140625 95.570312 Z M 130.390625 270.007812 L 163.160156 219.917969 L 169.5625 223.222656 L 145.039062 278.664062 Z M 130.390625 270.007812 " fill-opacity="1" fill-rule="evenodd"/></g><g clip-path="url(#26721eda9e)"><path fill="#c04637" d="M 305.230469 154.734375 L 236.5 169.304688 L 234.328125 160.351562 L 299.570312 132.273438 Z M 123.203125 81.828125 L 161.21875 137.144531 L 155.050781 141.71875 L 102.589844 98 Z M 174.183594 292.738281 L 183.132812 225.609375 L 190.03125 226.386719 L 198.0625 293.554688 Z M 174.183594 292.738281 " fill-opacity="1" fill-rule="evenodd"/></g><g clip-path="url(#bb88da0b18)"><path fill="#343c44" d="M 94.964844 128.015625 L 146.457031 156.347656 L 143.699219 162.664062 L 86.6875 145.878906 Z M 293.164062 204.234375 L 234.675781 190.589844 L 235.941406 183.804688 L 296.335938 187.632812 Z M 236.371094 74.242188 L 206.179688 134.730469 L 199.96875 131.734375 L 211.496094 65.265625 Z M 89.15625 234.597656 L 146.753906 200.625 L 151.304688 207.847656 L 102.875 254.390625 Z M 89.15625 234.597656 " fill-opacity="1" fill-rule="evenodd"/></g><g clip-path="url(#c77b7046f4)"><path fill="#73a9a3" d="M 174.257812 71.675781 L 183.898438 129.746094 L 177.097656 130.886719 L 157.601562 74.390625 Z M 226.398438 280.890625 L 206.21875 224.121094 L 212.636719 221.4375 L 242.132812 274.402344 Z M 226.398438 280.890625 " fill-opacity="1" fill-rule="evenodd"/></g><g fill="#73a9a3" fill-opacity="0.302"><g transform="translate(74.051645, 256.832796)"><g><path d="M 1.3125 0 C 1.988281 -2.988281 2.492188 -6.144531 2.828125 -9.46875 C 3.171875 -12.789062 3.34375 -16.148438 3.34375 -19.546875 C 3.34375 -22.953125 3.179688 -26.316406 2.859375 -29.640625 C 2.535156 -32.960938 2.035156 -36.117188 1.359375 -39.109375 L 17 -39.109375 C 20.488281 -39.109375 23.445312 -38.644531 25.875 -37.71875 C 28.3125 -36.800781 30.25 -35.585938 31.6875 -34.078125 C 33.125 -32.566406 34.0625 -30.90625 34.5 -29.09375 C 34.9375 -27.28125 34.890625 -25.460938 34.359375 -23.640625 C 33.835938 -21.828125 32.84375 -20.164062 31.375 -18.65625 C 29.914062 -17.144531 27.984375 -15.925781 25.578125 -15 C 23.171875 -14.082031 20.3125 -13.625 17 -13.625 L 11.953125 -13.625 C 12.210938 -8.875 12.8125 -4.332031 13.75 0 Z M 11.828125 -21.890625 C 11.828125 -21.035156 11.828125 -20.289062 11.828125 -19.65625 C 11.828125 -19.03125 11.828125 -18.378906 11.828125 -17.703125 C 11.828125 -17.035156 11.835938 -16.203125 11.859375 -15.203125 L 16.125 -15.203125 C 17.59375 -15.203125 18.992188 -15.660156 20.328125 -16.578125 C 21.660156 -17.503906 22.796875 -18.757812 23.734375 -20.34375 C 24.671875 -21.925781 25.253906 -23.726562 25.484375 -25.75 C 25.722656 -27.769531 25.460938 -29.894531 24.703125 -32.125 C 24.203125 -33.644531 23.445312 -34.945312 22.4375 -36.03125 C 21.425781 -37.113281 20.070312 -37.65625 18.375 -37.65625 C 17.113281 -37.65625 16.070312 -37.265625 15.25 -36.484375 C 14.425781 -35.710938 13.78125 -34.703125 13.3125 -33.453125 C 12.84375 -32.210938 12.503906 -30.878906 12.296875 -29.453125 C 12.097656 -28.035156 11.96875 -26.65625 11.90625 -25.3125 C 11.851562 -23.96875 11.828125 -22.828125 11.828125 -21.890625 Z M 11.828125 -21.890625 "/></g></g></g><g fill="#73a9a3" fill-opacity="0.302"><g transform="translate(108.000278, 256.832796)"><g><path d="M 15.078125 -3.953125 C 14.253906 -2.335938 13.128906 -1.117188 11.703125 -0.296875 C 10.285156 0.515625 8.832031 0.921875 7.34375 0.921875 C 5.90625 0.921875 4.554688 0.554688 3.296875 -0.171875 C 2.035156 -0.910156 1.070312 -2.019531 0.40625 -3.5 C -0.25 -4.976562 -0.414062 -6.816406 -0.09375 -9.015625 C 0.207031 -10.972656 0.957031 -12.671875 2.15625 -14.109375 C 3.351562 -15.546875 4.800781 -16.660156 6.5 -17.453125 C 8.195312 -18.242188 9.925781 -18.640625 11.6875 -18.640625 C 12.769531 -18.640625 13.820312 -18.476562 14.84375 -18.15625 C 15.875 -17.832031 16.816406 -17.332031 17.671875 -16.65625 C 18.078125 -17.476562 18.375 -18.472656 18.5625 -19.640625 C 18.757812 -20.816406 18.648438 -22.078125 18.234375 -23.421875 C 17.910156 -24.535156 17.394531 -25.382812 16.6875 -25.96875 C 15.988281 -26.550781 15.316406 -26.84375 14.671875 -26.84375 C 14.203125 -26.84375 13.804688 -26.6875 13.484375 -26.375 C 13.171875 -26.070312 12.984375 -25.601562 12.921875 -24.96875 C 12.804688 -23.5 12.476562 -22.359375 11.9375 -21.546875 C 11.394531 -20.742188 10.75 -20.175781 10 -19.84375 C 9.25 -19.507812 8.507812 -19.296875 7.78125 -19.203125 C 6.457031 -19.054688 5.398438 -19.269531 4.609375 -19.84375 C 3.816406 -20.414062 3.414062 -21.144531 3.40625 -22.03125 C 3.394531 -22.925781 3.859375 -23.785156 4.796875 -24.609375 C 6.140625 -25.804688 7.679688 -26.710938 9.421875 -27.328125 C 11.171875 -27.941406 12.910156 -28.25 14.640625 -28.25 C 16.128906 -28.25 17.546875 -28.007812 18.890625 -27.53125 C 20.242188 -27.050781 21.414062 -26.316406 22.40625 -25.328125 C 23.40625 -24.347656 24.125 -23.097656 24.5625 -21.578125 C 25 -20.054688 25.054688 -18.253906 24.734375 -16.171875 C 24.535156 -14.734375 24.367188 -13.222656 24.234375 -11.640625 C 24.097656 -10.054688 24.210938 -8.3125 24.578125 -6.40625 C 24.953125 -4.507812 25.769531 -2.375 27.03125 0 L 15.46875 0 C 15.257812 -0.675781 15.132812 -1.34375 15.09375 -2 C 15.050781 -2.65625 15.046875 -3.304688 15.078125 -3.953125 Z M 8.875 -10.234375 C 8.5 -8.710938 8.375 -7.390625 8.5 -6.265625 C 8.632812 -5.140625 8.953125 -4.265625 9.453125 -3.640625 C 9.953125 -3.023438 10.519531 -2.71875 11.15625 -2.71875 C 11.832031 -2.71875 12.535156 -3.09375 13.265625 -3.84375 C 14.003906 -4.59375 14.664062 -5.769531 15.25 -7.375 C 15.832031 -8.988281 16.242188 -11.085938 16.484375 -13.671875 C 16.484375 -14.691406 16.273438 -15.4375 15.859375 -15.90625 C 15.453125 -16.375 14.957031 -16.609375 14.375 -16.609375 C 13.4375 -16.609375 12.410156 -16.054688 11.296875 -14.953125 C 10.179688 -13.859375 9.375 -12.285156 8.875 -10.234375 Z M 8.875 -10.234375 "/></g></g></g><g fill="#73a9a3" fill-opacity="0.302"><g transform="translate(134.917661, 256.832796)"><g><path d="M 1.234375 0 C 1.753906 -2.132812 2.164062 -4.515625 2.46875 -7.140625 C 2.78125 -9.765625 2.988281 -12.488281 3.09375 -15.3125 C 3.195312 -18.144531 3.195312 -20.972656 3.09375 -23.796875 C 2.988281 -26.617188 2.78125 -29.34375 2.46875 -31.96875 C 2.164062 -34.59375 1.753906 -36.972656 1.234375 -39.109375 L 12.78125 -39.109375 C 12.257812 -36.972656 11.835938 -34.59375 11.515625 -31.96875 C 11.191406 -29.34375 10.976562 -26.617188 10.875 -23.796875 C 10.769531 -20.972656 10.769531 -18.144531 10.875 -15.3125 C 10.976562 -12.488281 11.191406 -9.769531 11.515625 -7.15625 C 11.835938 -4.550781 12.257812 -2.164062 12.78125 0 Z M 1.234375 0 "/></g></g></g><g fill="#73a9a3" fill-opacity="0.302"><g transform="translate(147.992272, 256.832796)"><g><path d="M 0.875 -12.75 C 0.875 -14.914062 1.234375 -16.925781 1.953125 -18.78125 C 2.671875 -20.644531 3.679688 -22.28125 4.984375 -23.6875 C 6.285156 -25.09375 7.820312 -26.191406 9.59375 -26.984375 C 11.375 -27.773438 13.316406 -28.171875 15.421875 -28.171875 C 16.472656 -28.171875 17.5625 -28.046875 18.6875 -27.796875 C 19.820312 -27.546875 20.863281 -27.15625 21.8125 -26.625 C 22.769531 -26.101562 23.554688 -25.410156 24.171875 -24.546875 C 24.785156 -23.679688 25.125 -22.617188 25.1875 -21.359375 C 25.238281 -19.921875 24.90625 -18.609375 24.1875 -17.421875 C 23.46875 -16.234375 22.492188 -15.1875 21.265625 -14.28125 C 20.035156 -13.375 18.695312 -12.613281 17.25 -12 C 15.800781 -11.382812 14.363281 -10.921875 12.9375 -10.609375 C 11.519531 -10.304688 10.253906 -10.15625 9.140625 -10.15625 C 9.222656 -8.539062 9.550781 -6.984375 10.125 -5.484375 C 10.695312 -3.992188 11.492188 -2.78125 12.515625 -1.84375 C 13.546875 -0.90625 14.796875 -0.484375 16.265625 -0.578125 C 17.054688 -0.628906 17.566406 -0.957031 17.796875 -1.5625 C 18.035156 -2.164062 18.054688 -2.894531 17.859375 -3.75 C 17.671875 -4.613281 17.332031 -5.457031 16.84375 -6.28125 C 16.363281 -7.101562 15.816406 -7.734375 15.203125 -8.171875 C 16.347656 -9.078125 17.414062 -9.726562 18.40625 -10.125 C 19.40625 -10.519531 20.316406 -10.71875 21.140625 -10.71875 C 22.222656 -10.71875 23.085938 -10.425781 23.734375 -9.84375 C 24.378906 -9.257812 24.742188 -8.488281 24.828125 -7.53125 C 24.921875 -6.582031 24.644531 -5.550781 24 -4.4375 C 23 -2.769531 21.640625 -1.46875 19.921875 -0.53125 C 18.210938 0.40625 16.40625 0.875 14.5 0.875 C 12.363281 0.875 10.453125 0.507812 8.765625 -0.21875 C 7.078125 -0.945312 5.644531 -1.945312 4.46875 -3.21875 C 3.300781 -4.5 2.410156 -5.957031 1.796875 -7.59375 C 1.179688 -9.238281 0.875 -10.957031 0.875 -12.75 Z M 9.890625 -18.71875 C 9.679688 -17.894531 9.492188 -16.832031 9.328125 -15.53125 C 9.171875 -14.226562 9.09375 -12.859375 9.09375 -11.421875 C 10.53125 -11.515625 11.828125 -12.015625 12.984375 -12.921875 C 14.140625 -13.828125 15.113281 -14.953125 15.90625 -16.296875 C 16.695312 -17.648438 17.238281 -19.015625 17.53125 -20.390625 C 18.03125 -22.648438 18.097656 -24.296875 17.734375 -25.328125 C 17.367188 -26.367188 16.804688 -26.890625 16.046875 -26.890625 C 15.398438 -26.890625 14.6875 -26.5625 13.90625 -25.90625 C 13.132812 -25.25 12.390625 -24.3125 11.671875 -23.09375 C 10.953125 -21.875 10.359375 -20.414062 9.890625 -18.71875 Z M 9.890625 -18.71875 "/></g></g></g><g fill="#73a9a3" fill-opacity="0.302"><g transform="translate(173.063952, 256.832796)"><g><path d="M 16.703125 -4.578125 C 15.617188 -2.722656 14.234375 -1.332031 12.546875 -0.40625 C 10.859375 0.507812 9.222656 0.96875 7.640625 0.96875 C 6.265625 0.96875 5.039062 0.625 3.96875 -0.0625 C 2.90625 -0.75 2.179688 -1.78125 1.796875 -3.15625 C 1.421875 -4.539062 1.566406 -6.257812 2.234375 -8.3125 C 2.910156 -10.382812 3.363281 -12.34375 3.59375 -14.1875 C 3.832031 -16.039062 3.925781 -17.816406 3.875 -19.515625 C 3.78125 -21.765625 3.359375 -23.34375 2.609375 -24.25 C 1.867188 -25.164062 0.867188 -25.738281 -0.390625 -25.96875 L -0.09375 -27.296875 C 0.5 -27.296875 1.265625 -27.351562 2.203125 -27.46875 C 3.140625 -27.582031 4.140625 -27.804688 5.203125 -28.140625 C 6.273438 -28.484375 7.332031 -28.96875 8.375 -29.59375 C 9.414062 -30.226562 10.34375 -31.050781 11.15625 -32.0625 C 11.976562 -33.070312 12.597656 -34.304688 13.015625 -35.765625 L 14.328125 -35.765625 C 13.972656 -34.335938 13.671875 -32.910156 13.421875 -31.484375 C 13.171875 -30.066406 12.972656 -28.671875 12.828125 -27.296875 L 17.046875 -27.296875 L 17.265625 -25.96875 L 12.703125 -25.96875 C 12.492188 -23.65625 12.414062 -21.363281 12.46875 -19.09375 C 12.53125 -16.820312 12.722656 -14.570312 13.046875 -12.34375 C 12.285156 -12.226562 11.378906 -11.9375 10.328125 -11.46875 C 9.273438 -11 8.234375 -10.410156 7.203125 -9.703125 C 6.179688 -9.003906 5.3125 -8.222656 4.59375 -7.359375 C 3.875 -6.492188 3.460938 -5.59375 3.359375 -4.65625 C 3.253906 -3.71875 3.597656 -2.78125 4.390625 -1.84375 C 4.804688 -1.375 5.289062 -1 5.84375 -0.71875 C 6.40625 -0.445312 6.960938 -0.3125 7.515625 -0.3125 C 8.066406 -0.3125 8.566406 -0.441406 9.015625 -0.703125 C 9.804688 -1.203125 10.242188 -1.929688 10.328125 -2.890625 C 10.410156 -3.859375 10.238281 -4.847656 9.8125 -5.859375 C 9.394531 -6.878906 8.773438 -7.695312 7.953125 -8.3125 C 9.097656 -9.21875 10.164062 -9.867188 11.15625 -10.265625 C 12.15625 -10.660156 13.066406 -10.859375 13.890625 -10.859375 C 14.972656 -10.859375 15.835938 -10.554688 16.484375 -9.953125 C 17.128906 -9.347656 17.488281 -8.570312 17.5625 -7.625 C 17.632812 -6.675781 17.347656 -5.660156 16.703125 -4.578125 Z M 16.703125 -4.578125 "/></g></g></g><g fill="#73a9a3" fill-opacity="0.302"><g transform="translate(190.445204, 256.832796)"><g><path d="M 16.703125 -4.578125 C 15.617188 -2.722656 14.234375 -1.332031 12.546875 -0.40625 C 10.859375 0.507812 9.222656 0.96875 7.640625 0.96875 C 6.265625 0.96875 5.039062 0.625 3.96875 -0.0625 C 2.90625 -0.75 2.179688 -1.78125 1.796875 -3.15625 C 1.421875 -4.539062 1.566406 -6.257812 2.234375 -8.3125 C 2.910156 -10.382812 3.363281 -12.34375 3.59375 -14.1875 C 3.832031 -16.039062 3.925781 -17.816406 3.875 -19.515625 C 3.78125 -21.765625 3.359375 -23.34375 2.609375 -24.25 C 1.867188 -25.164062 0.867188 -25.738281 -0.390625 -25.96875 L -0.09375 -27.296875 C 0.5 -27.296875 1.265625 -27.351562 2.203125 -27.46875 C 3.140625 -27.582031 4.140625 -27.804688 5.203125 -28.140625 C 6.273438 -28.484375 7.332031 -28.96875 8.375 -29.59375 C 9.414062 -30.226562 10.34375 -31.050781 11.15625 -32.0625 C 11.976562 -33.070312 12.597656 -34.304688 13.015625 -35.765625 L 14.328125 -35.765625 C 13.972656 -34.335938 13.671875 -32.910156 13.421875 -31.484375 C 13.171875 -30.066406 12.972656 -28.671875 12.828125 -27.296875 L 17.046875 -27.296875 L 17.265625 -25.96875 L 12.703125 -25.96875 C 12.492188 -23.65625 12.414062 -21.363281 12.46875 -19.09375 C 12.53125 -16.820312 12.722656 -14.570312 13.046875 -12.34375 C 12.285156 -12.226562 11.378906 -11.9375 10.328125 -11.46875 C 9.273438 -11 8.234375 -10.410156 7.203125 -9.703125 C 6.179688 -9.003906 5.3125 -8.222656 4.59375 -7.359375 C 3.875 -6.492188 3.460938 -5.59375 3.359375 -4.65625 C 3.253906 -3.71875 3.597656 -2.78125 4.390625 -1.84375 C 4.804688 -1.375 5.289062 -1 5.84375 -0.71875 C 6.40625 -0.445312 6.960938 -0.3125 7.515625 -0.3125 C 8.066406 -0.3125 8.566406 -0.441406 9.015625 -0.703125 C 9.804688 -1.203125 10.242188 -1.929688 10.328125 -2.890625 C 10.410156 -3.859375 10.238281 -4.847656 9.8125 -5.859375 C 9.394531 -6.878906 8.773438 -7.695312 7.953125 -8.3125 C 9.097656 -9.21875 10.164062 -9.867188 11.15625 -10.265625 C 12.15625 -10.660156 13.066406 -10.859375 13.890625 -10.859375 C 14.972656 -10.859375 15.835938 -10.554688 16.484375 -9.953125 C 17.128906 -9.347656 17.488281 -8.570312 17.5625 -7.625 C 17.632812 -6.675781 17.347656 -5.660156 16.703125 -4.578125 Z M 16.703125 -4.578125 "/></g></g></g><g fill="#73a9a3" fill-opacity="0.302"><g transform="translate(207.826455, 256.832796)"><g><path d="M 0.875 -12.75 C 0.875 -14.914062 1.234375 -16.925781 1.953125 -18.78125 C 2.671875 -20.644531 3.679688 -22.28125 4.984375 -23.6875 C 6.285156 -25.09375 7.820312 -26.191406 9.59375 -26.984375 C 11.375 -27.773438 13.316406 -28.171875 15.421875 -28.171875 C 16.472656 -28.171875 17.5625 -28.046875 18.6875 -27.796875 C 19.820312 -27.546875 20.863281 -27.15625 21.8125 -26.625 C 22.769531 -26.101562 23.554688 -25.410156 24.171875 -24.546875 C 24.785156 -23.679688 25.125 -22.617188 25.1875 -21.359375 C 25.238281 -19.921875 24.90625 -18.609375 24.1875 -17.421875 C 23.46875 -16.234375 22.492188 -15.1875 21.265625 -14.28125 C 20.035156 -13.375 18.695312 -12.613281 17.25 -12 C 15.800781 -11.382812 14.363281 -10.921875 12.9375 -10.609375 C 11.519531 -10.304688 10.253906 -10.15625 9.140625 -10.15625 C 9.222656 -8.539062 9.550781 -6.984375 10.125 -5.484375 C 10.695312 -3.992188 11.492188 -2.78125 12.515625 -1.84375 C 13.546875 -0.90625 14.796875 -0.484375 16.265625 -0.578125 C 17.054688 -0.628906 17.566406 -0.957031 17.796875 -1.5625 C 18.035156 -2.164062 18.054688 -2.894531 17.859375 -3.75 C 17.671875 -4.613281 17.332031 -5.457031 16.84375 -6.28125 C 16.363281 -7.101562 15.816406 -7.734375 15.203125 -8.171875 C 16.347656 -9.078125 17.414062 -9.726562 18.40625 -10.125 C 19.40625 -10.519531 20.316406 -10.71875 21.140625 -10.71875 C 22.222656 -10.71875 23.085938 -10.425781 23.734375 -9.84375 C 24.378906 -9.257812 24.742188 -8.488281 24.828125 -7.53125 C 24.921875 -6.582031 24.644531 -5.550781 24 -4.4375 C 23 -2.769531 21.640625 -1.46875 19.921875 -0.53125 C 18.210938 0.40625 16.40625 0.875 14.5 0.875 C 12.363281 0.875 10.453125 0.507812 8.765625 -0.21875 C 7.078125 -0.945312 5.644531 -1.945312 4.46875 -3.21875 C 3.300781 -4.5 2.410156 -5.957031 1.796875 -7.59375 C 1.179688 -9.238281 0.875 -10.957031 0.875 -12.75 Z M 9.890625 -18.71875 C 9.679688 -17.894531 9.492188 -16.832031 9.328125 -15.53125 C 9.171875 -14.226562 9.09375 -12.859375 9.09375 -11.421875 C 10.53125 -11.515625 11.828125 -12.015625 12.984375 -12.921875 C 14.140625 -13.828125 15.113281 -14.953125 15.90625 -16.296875 C 16.695312 -17.648438 17.238281 -19.015625 17.53125 -20.390625 C 18.03125 -22.648438 18.097656 -24.296875 17.734375 -25.328125 C 17.367188 -26.367188 16.804688 -26.890625 16.046875 -26.890625 C 15.398438 -26.890625 14.6875 -26.5625 13.90625 -25.90625 C 13.132812 -25.25 12.390625 -24.3125 11.671875 -23.09375 C 10.953125 -21.875 10.359375 -20.414062 9.890625 -18.71875 Z M 9.890625 -18.71875 "/></g></g></g><g fill="#73a9a3" fill-opacity="0.302"><g transform="translate(232.898135, 256.832796)"><g/></g></g><g fill="#73a9a3" fill-opacity="0.302"><g transform="translate(243.423918, 256.832796)"><g><path d="M 15.734375 0.171875 C 13.535156 -0.347656 11.550781 -1.238281 9.78125 -2.5 C 8.007812 -3.757812 6.492188 -5.269531 5.234375 -7.03125 C 3.972656 -8.789062 3.003906 -10.6875 2.328125 -12.71875 C 1.648438 -14.757812 1.3125 -16.832031 1.3125 -18.9375 C 1.3125 -21.75 1.800781 -24.421875 2.78125 -26.953125 C 3.769531 -29.492188 5.164062 -31.738281 6.96875 -33.6875 C 8.769531 -35.632812 10.921875 -37.171875 13.421875 -38.296875 C 15.929688 -39.421875 18.691406 -39.984375 21.703125 -39.984375 C 23.171875 -39.984375 24.378906 -39.925781 25.328125 -39.8125 C 26.285156 -39.695312 27.085938 -39.519531 27.734375 -39.28125 C 29.109375 -38.84375 30.644531 -38.625 32.34375 -38.625 C 32.925781 -38.625 33.488281 -38.648438 34.03125 -38.703125 C 34.570312 -38.765625 35.09375 -38.859375 35.59375 -38.984375 L 36.03125 -39.109375 C 35.125 -34.773438 34.507812 -30.132812 34.1875 -25.1875 C 33.78125 -28.226562 33.113281 -30.703125 32.1875 -32.609375 C 31.269531 -34.515625 30.203125 -35.910156 28.984375 -36.796875 C 27.765625 -37.691406 26.484375 -38.140625 25.140625 -38.140625 C 23.640625 -38.140625 22.148438 -37.640625 20.671875 -36.640625 C 19.191406 -35.648438 17.84375 -34.238281 16.625 -32.40625 C 15.414062 -30.570312 14.441406 -28.40625 13.703125 -25.90625 C 12.972656 -23.40625 12.609375 -20.644531 12.609375 -17.625 C 12.609375 -14.457031 12.867188 -11.789062 13.390625 -9.625 C 13.921875 -7.457031 14.648438 -5.710938 15.578125 -4.390625 C 16.503906 -3.078125 17.546875 -2.117188 18.703125 -1.515625 C 19.859375 -0.910156 21.066406 -0.609375 22.328125 -0.609375 C 23.585938 -0.609375 24.851562 -0.859375 26.125 -1.359375 C 27.394531 -1.859375 28.585938 -2.539062 29.703125 -3.40625 C 30.816406 -4.269531 31.796875 -5.265625 32.640625 -6.390625 C 33.492188 -7.523438 34.140625 -8.707031 34.578125 -9.9375 C 34.734375 -8.144531 34.925781 -6.472656 35.15625 -4.921875 C 35.394531 -3.367188 35.6875 -1.726562 36.03125 0 L 35.59375 -0.125 C 34.21875 -0.445312 32.84375 -0.609375 31.46875 -0.609375 C 31 -0.609375 30.539062 -0.585938 30.09375 -0.546875 C 29.65625 -0.503906 29.234375 -0.453125 28.828125 -0.390625 C 27.066406 -0.0664062 25.609375 0.226562 24.453125 0.5 C 23.296875 0.78125 22.085938 0.921875 20.828125 0.921875 C 20.128906 0.921875 19.367188 0.863281 18.546875 0.75 C 17.722656 0.632812 16.785156 0.441406 15.734375 0.171875 Z M 15.734375 0.171875 "/></g></g></g><g fill="#73a9a3" fill-opacity="0.302"><g transform="translate(279.218242, 256.832796)"><g><path d="M 13.75 0.875 C 10.96875 0.875 8.617188 0.234375 6.703125 -1.046875 C 4.785156 -2.335938 3.332031 -4.070312 2.34375 -6.25 C 1.363281 -8.4375 0.875 -10.894531 0.875 -13.625 C 0.875 -16.34375 1.363281 -18.796875 2.34375 -20.984375 C 3.332031 -23.171875 4.785156 -24.898438 6.703125 -26.171875 C 8.617188 -27.441406 10.96875 -28.078125 13.75 -28.078125 C 16.539062 -28.078125 18.898438 -27.441406 20.828125 -26.171875 C 22.765625 -24.898438 24.226562 -23.171875 25.21875 -20.984375 C 26.21875 -18.796875 26.71875 -16.34375 26.71875 -13.625 C 26.71875 -10.894531 26.21875 -8.4375 25.21875 -6.25 C 24.226562 -4.070312 22.765625 -2.335938 20.828125 -1.046875 C 18.898438 0.234375 16.539062 0.875 13.75 0.875 Z M 16 -26.40625 C 15.03125 -26.289062 14.117188 -25.726562 13.265625 -24.71875 C 12.421875 -23.707031 11.675781 -22.414062 11.03125 -20.84375 C 10.382812 -19.28125 9.847656 -17.578125 9.421875 -15.734375 C 9.003906 -13.890625 8.71875 -12.066406 8.5625 -10.265625 C 8.414062 -8.460938 8.421875 -6.820312 8.578125 -5.34375 C 8.742188 -3.863281 9.09375 -2.695312 9.625 -1.84375 C 10.15625 -1 10.890625 -0.632812 11.828125 -0.75 C 12.765625 -0.863281 13.617188 -1.414062 14.390625 -2.40625 C 15.171875 -3.40625 15.859375 -4.6875 16.453125 -6.25 C 17.054688 -7.820312 17.554688 -9.523438 17.953125 -11.359375 C 18.347656 -13.191406 18.617188 -15.015625 18.765625 -16.828125 C 18.910156 -18.648438 18.910156 -20.300781 18.765625 -21.78125 C 18.617188 -23.257812 18.316406 -24.421875 17.859375 -25.265625 C 17.410156 -26.117188 16.789062 -26.5 16 -26.40625 Z M 16 -26.40625 "/></g></g></g><g fill="#73a9a3" fill-opacity="0.502"><g transform="translate(72.579974, 255.36114)"><g><path d="M 1.3125 0 C 1.988281 -2.988281 2.492188 -6.144531 2.828125 -9.46875 C 3.171875 -12.789062 3.34375 -16.148438 3.34375 -19.546875 C 3.34375 -22.953125 3.179688 -26.316406 2.859375 -29.640625 C 2.535156 -32.960938 2.035156 -36.117188 1.359375 -39.109375 L 17 -39.109375 C 20.488281 -39.109375 23.445312 -38.644531 25.875 -37.71875 C 28.3125 -36.800781 30.25 -35.585938 31.6875 -34.078125 C 33.125 -32.566406 34.0625 -30.90625 34.5 -29.09375 C 34.9375 -27.28125 34.890625 -25.460938 34.359375 -23.640625 C 33.835938 -21.828125 32.84375 -20.164062 31.375 -18.65625 C 29.914062 -17.144531 27.984375 -15.925781 25.578125 -15 C 23.171875 -14.082031 20.3125 -13.625 17 -13.625 L 11.953125 -13.625 C 12.210938 -8.875 12.8125 -4.332031 13.75 0 Z M 11.828125 -21.890625 C 11.828125 -21.035156 11.828125 -20.289062 11.828125 -19.65625 C 11.828125 -19.03125 11.828125 -18.378906 11.828125 -17.703125 C 11.828125 -17.035156 11.835938 -16.203125 11.859375 -15.203125 L 16.125 -15.203125 C 17.59375 -15.203125 18.992188 -15.660156 20.328125 -16.578125 C 21.660156 -17.503906 22.796875 -18.757812 23.734375 -20.34375 C 24.671875 -21.925781 25.253906 -23.726562 25.484375 -25.75 C 25.722656 -27.769531 25.460938 -29.894531 24.703125 -32.125 C 24.203125 -33.644531 23.445312 -34.945312 22.4375 -36.03125 C 21.425781 -37.113281 20.070312 -37.65625 18.375 -37.65625 C 17.113281 -37.65625 16.070312 -37.265625 15.25 -36.484375 C 14.425781 -35.710938 13.78125 -34.703125 13.3125 -33.453125 C 12.84375 -32.210938 12.503906 -30.878906 12.296875 -29.453125 C 12.097656 -28.035156 11.96875 -26.65625 11.90625 -25.3125 C 11.851562 -23.96875 11.828125 -22.828125 11.828125 -21.890625 Z M 11.828125 -21.890625 "/></g></g></g><g fill="#73a9a3" fill-opacity="0.502"><g transform="translate(106.528607, 255.36114)"><g><path d="M 15.078125 -3.953125 C 14.253906 -2.335938 13.128906 -1.117188 11.703125 -0.296875 C 10.285156 0.515625 8.832031 0.921875 7.34375 0.921875 C 5.90625 0.921875 4.554688 0.554688 3.296875 -0.171875 C 2.035156 -0.910156 1.070312 -2.019531 0.40625 -3.5 C -0.25 -4.976562 -0.414062 -6.816406 -0.09375 -9.015625 C 0.207031 -10.972656 0.957031 -12.671875 2.15625 -14.109375 C 3.351562 -15.546875 4.800781 -16.660156 6.5 -17.453125 C 8.195312 -18.242188 9.925781 -18.640625 11.6875 -18.640625 C 12.769531 -18.640625 13.820312 -18.476562 14.84375 -18.15625 C 15.875 -17.832031 16.816406 -17.332031 17.671875 -16.65625 C 18.078125 -17.476562 18.375 -18.472656 18.5625 -19.640625 C 18.757812 -20.816406 18.648438 -22.078125 18.234375 -23.421875 C 17.910156 -24.535156 17.394531 -25.382812 16.6875 -25.96875 C 15.988281 -26.550781 15.316406 -26.84375 14.671875 -26.84375 C 14.203125 -26.84375 13.804688 -26.6875 13.484375 -26.375 C 13.171875 -26.070312 12.984375 -25.601562 12.921875 -24.96875 C 12.804688 -23.5 12.476562 -22.359375 11.9375 -21.546875 C 11.394531 -20.742188 10.75 -20.175781 10 -19.84375 C 9.25 -19.507812 8.507812 -19.296875 7.78125 -19.203125 C 6.457031 -19.054688 5.398438 -19.269531 4.609375 -19.84375 C 3.816406 -20.414062 3.414062 -21.144531 3.40625 -22.03125 C 3.394531 -22.925781 3.859375 -23.785156 4.796875 -24.609375 C 6.140625 -25.804688 7.679688 -26.710938 9.421875 -27.328125 C 11.171875 -27.941406 12.910156 -28.25 14.640625 -28.25 C 16.128906 -28.25 17.546875 -28.007812 18.890625 -27.53125 C 20.242188 -27.050781 21.414062 -26.316406 22.40625 -25.328125 C 23.40625 -24.347656 24.125 -23.097656 24.5625 -21.578125 C 25 -20.054688 25.054688 -18.253906 24.734375 -16.171875 C 24.535156 -14.734375 24.367188 -13.222656 24.234375 -11.640625 C 24.097656 -10.054688 24.210938 -8.3125 24.578125 -6.40625 C 24.953125 -4.507812 25.769531 -2.375 27.03125 0 L 15.46875 0 C 15.257812 -0.675781 15.132812 -1.34375 15.09375 -2 C 15.050781 -2.65625 15.046875 -3.304688 15.078125 -3.953125 Z M 8.875 -10.234375 C 8.5 -8.710938 8.375 -7.390625 8.5 -6.265625 C 8.632812 -5.140625 8.953125 -4.265625 9.453125 -3.640625 C 9.953125 -3.023438 10.519531 -2.71875 11.15625 -2.71875 C 11.832031 -2.71875 12.535156 -3.09375 13.265625 -3.84375 C 14.003906 -4.59375 14.664062 -5.769531 15.25 -7.375 C 15.832031 -8.988281 16.242188 -11.085938 16.484375 -13.671875 C 16.484375 -14.691406 16.273438 -15.4375 15.859375 -15.90625 C 15.453125 -16.375 14.957031 -16.609375 14.375 -16.609375 C 13.4375 -16.609375 12.410156 -16.054688 11.296875 -14.953125 C 10.179688 -13.859375 9.375 -12.285156 8.875 -10.234375 Z M 8.875 -10.234375 "/></g></g></g><g fill="#73a9a3" fill-opacity="0.502"><g transform="translate(133.445991, 255.36114)"><g><path d="M 1.234375 0 C 1.753906 -2.132812 2.164062 -4.515625 2.46875 -7.140625 C 2.78125 -9.765625 2.988281 -12.488281 3.09375 -15.3125 C 3.195312 -18.144531 3.195312 -20.972656 3.09375 -23.796875 C 2.988281 -26.617188 2.78125 -29.34375 2.46875 -31.96875 C 2.164062 -34.59375 1.753906 -36.972656 1.234375 -39.109375 L 12.78125 -39.109375 C 12.257812 -36.972656 11.835938 -34.59375 11.515625 -31.96875 C 11.191406 -29.34375 10.976562 -26.617188 10.875 -23.796875 C 10.769531 -20.972656 10.769531 -18.144531 10.875 -15.3125 C 10.976562 -12.488281 11.191406 -9.769531 11.515625 -7.15625 C 11.835938 -4.550781 12.257812 -2.164062 12.78125 0 Z M 1.234375 0 "/></g></g></g><g fill="#73a9a3" fill-opacity="0.502"><g transform="translate(146.520602, 255.36114)"><g><path d="M 0.875 -12.75 C 0.875 -14.914062 1.234375 -16.925781 1.953125 -18.78125 C 2.671875 -20.644531 3.679688 -22.28125 4.984375 -23.6875 C 6.285156 -25.09375 7.820312 -26.191406 9.59375 -26.984375 C 11.375 -27.773438 13.316406 -28.171875 15.421875 -28.171875 C 16.472656 -28.171875 17.5625 -28.046875 18.6875 -27.796875 C 19.820312 -27.546875 20.863281 -27.15625 21.8125 -26.625 C 22.769531 -26.101562 23.554688 -25.410156 24.171875 -24.546875 C 24.785156 -23.679688 25.125 -22.617188 25.1875 -21.359375 C 25.238281 -19.921875 24.90625 -18.609375 24.1875 -17.421875 C 23.46875 -16.234375 22.492188 -15.1875 21.265625 -14.28125 C 20.035156 -13.375 18.695312 -12.613281 17.25 -12 C 15.800781 -11.382812 14.363281 -10.921875 12.9375 -10.609375 C 11.519531 -10.304688 10.253906 -10.15625 9.140625 -10.15625 C 9.222656 -8.539062 9.550781 -6.984375 10.125 -5.484375 C 10.695312 -3.992188 11.492188 -2.78125 12.515625 -1.84375 C 13.546875 -0.90625 14.796875 -0.484375 16.265625 -0.578125 C 17.054688 -0.628906 17.566406 -0.957031 17.796875 -1.5625 C 18.035156 -2.164062 18.054688 -2.894531 17.859375 -3.75 C 17.671875 -4.613281 17.332031 -5.457031 16.84375 -6.28125 C 16.363281 -7.101562 15.816406 -7.734375 15.203125 -8.171875 C 16.347656 -9.078125 17.414062 -9.726562 18.40625 -10.125 C 19.40625 -10.519531 20.316406 -10.71875 21.140625 -10.71875 C 22.222656 -10.71875 23.085938 -10.425781 23.734375 -9.84375 C 24.378906 -9.257812 24.742188 -8.488281 24.828125 -7.53125 C 24.921875 -6.582031 24.644531 -5.550781 24 -4.4375 C 23 -2.769531 21.640625 -1.46875 19.921875 -0.53125 C 18.210938 0.40625 16.40625 0.875 14.5 0.875 C 12.363281 0.875 10.453125 0.507812 8.765625 -0.21875 C 7.078125 -0.945312 5.644531 -1.945312 4.46875 -3.21875 C 3.300781 -4.5 2.410156 -5.957031 1.796875 -7.59375 C 1.179688 -9.238281 0.875 -10.957031 0.875 -12.75 Z M 9.890625 -18.71875 C 9.679688 -17.894531 9.492188 -16.832031 9.328125 -15.53125 C 9.171875 -14.226562 9.09375 -12.859375 9.09375 -11.421875 C 10.53125 -11.515625 11.828125 -12.015625 12.984375 -12.921875 C 14.140625 -13.828125 15.113281 -14.953125 15.90625 -16.296875 C 16.695312 -17.648438 17.238281 -19.015625 17.53125 -20.390625 C 18.03125 -22.648438 18.097656 -24.296875 17.734375 -25.328125 C 17.367188 -26.367188 16.804688 -26.890625 16.046875 -26.890625 C 15.398438 -26.890625 14.6875 -26.5625 13.90625 -25.90625 C 13.132812 -25.25 12.390625 -24.3125 11.671875 -23.09375 C 10.953125 -21.875 10.359375 -20.414062 9.890625 -18.71875 Z M 9.890625 -18.71875 "/></g></g></g><g fill="#73a9a3" fill-opacity="0.502"><g transform="translate(171.592282, 255.36114)"><g><path d="M 16.703125 -4.578125 C 15.617188 -2.722656 14.234375 -1.332031 12.546875 -0.40625 C 10.859375 0.507812 9.222656 0.96875 7.640625 0.96875 C 6.265625 0.96875 5.039062 0.625 3.96875 -0.0625 C 2.90625 -0.75 2.179688 -1.78125 1.796875 -3.15625 C 1.421875 -4.539062 1.566406 -6.257812 2.234375 -8.3125 C 2.910156 -10.382812 3.363281 -12.34375 3.59375 -14.1875 C 3.832031 -16.039062 3.925781 -17.816406 3.875 -19.515625 C 3.78125 -21.765625 3.359375 -23.34375 2.609375 -24.25 C 1.867188 -25.164062 0.867188 -25.738281 -0.390625 -25.96875 L -0.09375 -27.296875 C 0.5 -27.296875 1.265625 -27.351562 2.203125 -27.46875 C 3.140625 -27.582031 4.140625 -27.804688 5.203125 -28.140625 C 6.273438 -28.484375 7.332031 -28.96875 8.375 -29.59375 C 9.414062 -30.226562 10.34375 -31.050781 11.15625 -32.0625 C 11.976562 -33.070312 12.597656 -34.304688 13.015625 -35.765625 L 14.328125 -35.765625 C 13.972656 -34.335938 13.671875 -32.910156 13.421875 -31.484375 C 13.171875 -30.066406 12.972656 -28.671875 12.828125 -27.296875 L 17.046875 -27.296875 L 17.265625 -25.96875 L 12.703125 -25.96875 C 12.492188 -23.65625 12.414062 -21.363281 12.46875 -19.09375 C 12.53125 -16.820312 12.722656 -14.570312 13.046875 -12.34375 C 12.285156 -12.226562 11.378906 -11.9375 10.328125 -11.46875 C 9.273438 -11 8.234375 -10.410156 7.203125 -9.703125 C 6.179688 -9.003906 5.3125 -8.222656 4.59375 -7.359375 C 3.875 -6.492188 3.460938 -5.59375 3.359375 -4.65625 C 3.253906 -3.71875 3.597656 -2.78125 4.390625 -1.84375 C 4.804688 -1.375 5.289062 -1 5.84375 -0.71875 C 6.40625 -0.445312 6.960938 -0.3125 7.515625 -0.3125 C 8.066406 -0.3125 8.566406 -0.441406 9.015625 -0.703125 C 9.804688 -1.203125 10.242188 -1.929688 10.328125 -2.890625 C 10.410156 -3.859375 10.238281 -4.847656 9.8125 -5.859375 C 9.394531 -6.878906 8.773438 -7.695312 7.953125 -8.3125 C 9.097656 -9.21875 10.164062 -9.867188 11.15625 -10.265625 C 12.15625 -10.660156 13.066406 -10.859375 13.890625 -10.859375 C 14.972656 -10.859375 15.835938 -10.554688 16.484375 -9.953125 C 17.128906 -9.347656 17.488281 -8.570312 17.5625 -7.625 C 17.632812 -6.675781 17.347656 -5.660156 16.703125 -4.578125 Z M 16.703125 -4.578125 "/></g></g></g><g fill="#73a9a3" fill-opacity="0.502"><g transform="translate(188.973533, 255.36114)"><g><path d="M 16.703125 -4.578125 C 15.617188 -2.722656 14.234375 -1.332031 12.546875 -0.40625 C 10.859375 0.507812 9.222656 0.96875 7.640625 0.96875 C 6.265625 0.96875 5.039062 0.625 3.96875 -0.0625 C 2.90625 -0.75 2.179688 -1.78125 1.796875 -3.15625 C 1.421875 -4.539062 1.566406 -6.257812 2.234375 -8.3125 C 2.910156 -10.382812 3.363281 -12.34375 3.59375 -14.1875 C 3.832031 -16.039062 3.925781 -17.816406 3.875 -19.515625 C 3.78125 -21.765625 3.359375 -23.34375 2.609375 -24.25 C 1.867188 -25.164062 0.867188 -25.738281 -0.390625 -25.96875 L -0.09375 -27.296875 C 0.5 -27.296875 1.265625 -27.351562 2.203125 -27.46875 C 3.140625 -27.582031 4.140625 -27.804688 5.203125 -28.140625 C 6.273438 -28.484375 7.332031 -28.96875 8.375 -29.59375 C 9.414062 -30.226562 10.34375 -31.050781 11.15625 -32.0625 C 11.976562 -33.070312 12.597656 -34.304688 13.015625 -35.765625 L 14.328125 -35.765625 C 13.972656 -34.335938 13.671875 -32.910156 13.421875 -31.484375 C 13.171875 -30.066406 12.972656 -28.671875 12.828125 -27.296875 L 17.046875 -27.296875 L 17.265625 -25.96875 L 12.703125 -25.96875 C 12.492188 -23.65625 12.414062 -21.363281 12.46875 -19.09375 C 12.53125 -16.820312 12.722656 -14.570312 13.046875 -12.34375 C 12.285156 -12.226562 11.378906 -11.9375 10.328125 -11.46875 C 9.273438 -11 8.234375 -10.410156 7.203125 -9.703125 C 6.179688 -9.003906 5.3125 -8.222656 4.59375 -7.359375 C 3.875 -6.492188 3.460938 -5.59375 3.359375 -4.65625 C 3.253906 -3.71875 3.597656 -2.78125 4.390625 -1.84375 C 4.804688 -1.375 5.289062 -1 5.84375 -0.71875 C 6.40625 -0.445312 6.960938 -0.3125 7.515625 -0.3125 C 8.066406 -0.3125 8.566406 -0.441406 9.015625 -0.703125 C 9.804688 -1.203125 10.242188 -1.929688 10.328125 -2.890625 C 10.410156 -3.859375 10.238281 -4.847656 9.8125 -5.859375 C 9.394531 -6.878906 8.773438 -7.695312 7.953125 -8.3125 C 9.097656 -9.21875 10.164062 -9.867188 11.15625 -10.265625 C 12.15625 -10.660156 13.066406 -10.859375 13.890625 -10.859375 C 14.972656 -10.859375 15.835938 -10.554688 16.484375 -9.953125 C 17.128906 -9.347656 17.488281 -8.570312 17.5625 -7.625 C 17.632812 -6.675781 17.347656 -5.660156 16.703125 -4.578125 Z M 16.703125 -4.578125 "/></g></g></g><g fill="#73a9a3" fill-opacity="0.502"><g transform="translate(206.354784, 255.36114)"><g><path d="M 0.875 -12.75 C 0.875 -14.914062 1.234375 -16.925781 1.953125 -18.78125 C 2.671875 -20.644531 3.679688 -22.28125 4.984375 -23.6875 C 6.285156 -25.09375 7.820312 -26.191406 9.59375 -26.984375 C 11.375 -27.773438 13.316406 -28.171875 15.421875 -28.171875 C 16.472656 -28.171875 17.5625 -28.046875 18.6875 -27.796875 C 19.820312 -27.546875 20.863281 -27.15625 21.8125 -26.625 C 22.769531 -26.101562 23.554688 -25.410156 24.171875 -24.546875 C 24.785156 -23.679688 25.125 -22.617188 25.1875 -21.359375 C 25.238281 -19.921875 24.90625 -18.609375 24.1875 -17.421875 C 23.46875 -16.234375 22.492188 -15.1875 21.265625 -14.28125 C 20.035156 -13.375 18.695312 -12.613281 17.25 -12 C 15.800781 -11.382812 14.363281 -10.921875 12.9375 -10.609375 C 11.519531 -10.304688 10.253906 -10.15625 9.140625 -10.15625 C 9.222656 -8.539062 9.550781 -6.984375 10.125 -5.484375 C 10.695312 -3.992188 11.492188 -2.78125 12.515625 -1.84375 C 13.546875 -0.90625 14.796875 -0.484375 16.265625 -0.578125 C 17.054688 -0.628906 17.566406 -0.957031 17.796875 -1.5625 C 18.035156 -2.164062 18.054688 -2.894531 17.859375 -3.75 C 17.671875 -4.613281 17.332031 -5.457031 16.84375 -6.28125 C 16.363281 -7.101562 15.816406 -7.734375 15.203125 -8.171875 C 16.347656 -9.078125 17.414062 -9.726562 18.40625 -10.125 C 19.40625 -10.519531 20.316406 -10.71875 21.140625 -10.71875 C 22.222656 -10.71875 23.085938 -10.425781 23.734375 -9.84375 C 24.378906 -9.257812 24.742188 -8.488281 24.828125 -7.53125 C 24.921875 -6.582031 24.644531 -5.550781 24 -4.4375 C 23 -2.769531 21.640625 -1.46875 19.921875 -0.53125 C 18.210938 0.40625 16.40625 0.875 14.5 0.875 C 12.363281 0.875 10.453125 0.507812 8.765625 -0.21875 C 7.078125 -0.945312 5.644531 -1.945312 4.46875 -3.21875 C 3.300781 -4.5 2.410156 -5.957031 1.796875 -7.59375 C 1.179688 -9.238281 0.875 -10.957031 0.875 -12.75 Z M 9.890625 -18.71875 C 9.679688 -17.894531 9.492188 -16.832031 9.328125 -15.53125 C 9.171875 -14.226562 9.09375 -12.859375 9.09375 -11.421875 C 10.53125 -11.515625 11.828125 -12.015625 12.984375 -12.921875 C 14.140625 -13.828125 15.113281 -14.953125 15.90625 -16.296875 C 16.695312 -17.648438 17.238281 -19.015625 17.53125 -20.390625 C 18.03125 -22.648438 18.097656 -24.296875 17.734375 -25.328125 C 17.367188 -26.367188 16.804688 -26.890625 16.046875 -26.890625 C 15.398438 -26.890625 14.6875 -26.5625 13.90625 -25.90625 C 13.132812 -25.25 12.390625 -24.3125 11.671875 -23.09375 C 10.953125 -21.875 10.359375 -20.414062 9.890625 -18.71875 Z M 9.890625 -18.71875 "/></g></g></g><g fill="#73a9a3" fill-opacity="0.502"><g transform="translate(231.426465, 255.36114)"><g/></g></g><g fill="#73a9a3" fill-opacity="0.502"><g transform="translate(241.952247, 255.36114)"><g><path d="M 15.734375 0.171875 C 13.535156 -0.347656 11.550781 -1.238281 9.78125 -2.5 C 8.007812 -3.757812 6.492188 -5.269531 5.234375 -7.03125 C 3.972656 -8.789062 3.003906 -10.6875 2.328125 -12.71875 C 1.648438 -14.757812 1.3125 -16.832031 1.3125 -18.9375 C 1.3125 -21.75 1.800781 -24.421875 2.78125 -26.953125 C 3.769531 -29.492188 5.164062 -31.738281 6.96875 -33.6875 C 8.769531 -35.632812 10.921875 -37.171875 13.421875 -38.296875 C 15.929688 -39.421875 18.691406 -39.984375 21.703125 -39.984375 C 23.171875 -39.984375 24.378906 -39.925781 25.328125 -39.8125 C 26.285156 -39.695312 27.085938 -39.519531 27.734375 -39.28125 C 29.109375 -38.84375 30.644531 -38.625 32.34375 -38.625 C 32.925781 -38.625 33.488281 -38.648438 34.03125 -38.703125 C 34.570312 -38.765625 35.09375 -38.859375 35.59375 -38.984375 L 36.03125 -39.109375 C 35.125 -34.773438 34.507812 -30.132812 34.1875 -25.1875 C 33.78125 -28.226562 33.113281 -30.703125 32.1875 -32.609375 C 31.269531 -34.515625 30.203125 -35.910156 28.984375 -36.796875 C 27.765625 -37.691406 26.484375 -38.140625 25.140625 -38.140625 C 23.640625 -38.140625 22.148438 -37.640625 20.671875 -36.640625 C 19.191406 -35.648438 17.84375 -34.238281 16.625 -32.40625 C 15.414062 -30.570312 14.441406 -28.40625 13.703125 -25.90625 C 12.972656 -23.40625 12.609375 -20.644531 12.609375 -17.625 C 12.609375 -14.457031 12.867188 -11.789062 13.390625 -9.625 C 13.921875 -7.457031 14.648438 -5.710938 15.578125 -4.390625 C 16.503906 -3.078125 17.546875 -2.117188 18.703125 -1.515625 C 19.859375 -0.910156 21.066406 -0.609375 22.328125 -0.609375 C 23.585938 -0.609375 24.851562 -0.859375 26.125 -1.359375 C 27.394531 -1.859375 28.585938 -2.539062 29.703125 -3.40625 C 30.816406 -4.269531 31.796875 -5.265625 32.640625 -6.390625 C 33.492188 -7.523438 34.140625 -8.707031 34.578125 -9.9375 C 34.734375 -8.144531 34.925781 -6.472656 35.15625 -4.921875 C 35.394531 -3.367188 35.6875 -1.726562 36.03125 0 L 35.59375 -0.125 C 34.21875 -0.445312 32.84375 -0.609375 31.46875 -0.609375 C 31 -0.609375 30.539062 -0.585938 30.09375 -0.546875 C 29.65625 -0.503906 29.234375 -0.453125 28.828125 -0.390625 C 27.066406 -0.0664062 25.609375 0.226562 24.453125 0.5 C 23.296875 0.78125 22.085938 0.921875 20.828125 0.921875 C 20.128906 0.921875 19.367188 0.863281 18.546875 0.75 C 17.722656 0.632812 16.785156 0.441406 15.734375 0.171875 Z M 15.734375 0.171875 "/></g></g></g><g fill="#73a9a3" fill-opacity="0.502"><g transform="translate(277.746572, 255.36114)"><g><path d="M 13.75 0.875 C 10.96875 0.875 8.617188 0.234375 6.703125 -1.046875 C 4.785156 -2.335938 3.332031 -4.070312 2.34375 -6.25 C 1.363281 -8.4375 0.875 -10.894531 0.875 -13.625 C 0.875 -16.34375 1.363281 -18.796875 2.34375 -20.984375 C 3.332031 -23.171875 4.785156 -24.898438 6.703125 -26.171875 C 8.617188 -27.441406 10.96875 -28.078125 13.75 -28.078125 C 16.539062 -28.078125 18.898438 -27.441406 20.828125 -26.171875 C 22.765625 -24.898438 24.226562 -23.171875 25.21875 -20.984375 C 26.21875 -18.796875 26.71875 -16.34375 26.71875 -13.625 C 26.71875 -10.894531 26.21875 -8.4375 25.21875 -6.25 C 24.226562 -4.070312 22.765625 -2.335938 20.828125 -1.046875 C 18.898438 0.234375 16.539062 0.875 13.75 0.875 Z M 16 -26.40625 C 15.03125 -26.289062 14.117188 -25.726562 13.265625 -24.71875 C 12.421875 -23.707031 11.675781 -22.414062 11.03125 -20.84375 C 10.382812 -19.28125 9.847656 -17.578125 9.421875 -15.734375 C 9.003906 -13.890625 8.71875 -12.066406 8.5625 -10.265625 C 8.414062 -8.460938 8.421875 -6.820312 8.578125 -5.34375 C 8.742188 -3.863281 9.09375 -2.695312 9.625 -1.84375 C 10.15625 -1 10.890625 -0.632812 11.828125 -0.75 C 12.765625 -0.863281 13.617188 -1.414062 14.390625 -2.40625 C 15.171875 -3.40625 15.859375 -4.6875 16.453125 -6.25 C 17.054688 -7.820312 17.554688 -9.523438 17.953125 -11.359375 C 18.347656 -13.191406 18.617188 -15.015625 18.765625 -16.828125 C 18.910156 -18.648438 18.910156 -20.300781 18.765625 -21.78125 C 18.617188 -23.257812 18.316406 -24.421875 17.859375 -25.265625 C 17.410156 -26.117188 16.789062 -26.5 16 -26.40625 Z M 16 -26.40625 "/></g></g></g><g fill="#343c44" fill-opacity="1"><g transform="translate(71.108314, 253.88947)"><g><path d="M 1.3125 0 C 1.988281 -2.988281 2.492188 -6.144531 2.828125 -9.46875 C 3.171875 -12.789062 3.34375 -16.148438 3.34375 -19.546875 C 3.34375 -22.953125 3.179688 -26.316406 2.859375 -29.640625 C 2.535156 -32.960938 2.035156 -36.117188 1.359375 -39.109375 L 17 -39.109375 C 20.488281 -39.109375 23.445312 -38.644531 25.875 -37.71875 C 28.3125 -36.800781 30.25 -35.585938 31.6875 -34.078125 C 33.125 -32.566406 34.0625 -30.90625 34.5 -29.09375 C 34.9375 -27.28125 34.890625 -25.460938 34.359375 -23.640625 C 33.835938 -21.828125 32.84375 -20.164062 31.375 -18.65625 C 29.914062 -17.144531 27.984375 -15.925781 25.578125 -15 C 23.171875 -14.082031 20.3125 -13.625 17 -13.625 L 11.953125 -13.625 C 12.210938 -8.875 12.8125 -4.332031 13.75 0 Z M 11.828125 -21.890625 C 11.828125 -21.035156 11.828125 -20.289062 11.828125 -19.65625 C 11.828125 -19.03125 11.828125 -18.378906 11.828125 -17.703125 C 11.828125 -17.035156 11.835938 -16.203125 11.859375 -15.203125 L 16.125 -15.203125 C 17.59375 -15.203125 18.992188 -15.660156 20.328125 -16.578125 C 21.660156 -17.503906 22.796875 -18.757812 23.734375 -20.34375 C 24.671875 -21.925781 25.253906 -23.726562 25.484375 -25.75 C 25.722656 -27.769531 25.460938 -29.894531 24.703125 -32.125 C 24.203125 -33.644531 23.445312 -34.945312 22.4375 -36.03125 C 21.425781 -37.113281 20.070312 -37.65625 18.375 -37.65625 C 17.113281 -37.65625 16.070312 -37.265625 15.25 -36.484375 C 14.425781 -35.710938 13.78125 -34.703125 13.3125 -33.453125 C 12.84375 -32.210938 12.503906 -30.878906 12.296875 -29.453125 C 12.097656 -28.035156 11.96875 -26.65625 11.90625 -25.3125 C 11.851562 -23.96875 11.828125 -22.828125 11.828125 -21.890625 Z M 11.828125 -21.890625 "/></g></g></g><g fill="#343c44" fill-opacity="1"><g transform="translate(105.056947, 253.88947)"><g><path d="M 15.078125 -3.953125 C 14.253906 -2.335938 13.128906 -1.117188 11.703125 -0.296875 C 10.285156 0.515625 8.832031 0.921875 7.34375 0.921875 C 5.90625 0.921875 4.554688 0.554688 3.296875 -0.171875 C 2.035156 -0.910156 1.070312 -2.019531 0.40625 -3.5 C -0.25 -4.976562 -0.414062 -6.816406 -0.09375 -9.015625 C 0.207031 -10.972656 0.957031 -12.671875 2.15625 -14.109375 C 3.351562 -15.546875 4.800781 -16.660156 6.5 -17.453125 C 8.195312 -18.242188 9.925781 -18.640625 11.6875 -18.640625 C 12.769531 -18.640625 13.820312 -18.476562 14.84375 -18.15625 C 15.875 -17.832031 16.816406 -17.332031 17.671875 -16.65625 C 18.078125 -17.476562 18.375 -18.472656 18.5625 -19.640625 C 18.757812 -20.816406 18.648438 -22.078125 18.234375 -23.421875 C 17.910156 -24.535156 17.394531 -25.382812 16.6875 -25.96875 C 15.988281 -26.550781 15.316406 -26.84375 14.671875 -26.84375 C 14.203125 -26.84375 13.804688 -26.6875 13.484375 -26.375 C 13.171875 -26.070312 12.984375 -25.601562 12.921875 -24.96875 C 12.804688 -23.5 12.476562 -22.359375 11.9375 -21.546875 C 11.394531 -20.742188 10.75 -20.175781 10 -19.84375 C 9.25 -19.507812 8.507812 -19.296875 7.78125 -19.203125 C 6.457031 -19.054688 5.398438 -19.269531 4.609375 -19.84375 C 3.816406 -20.414062 3.414062 -21.144531 3.40625 -22.03125 C 3.394531 -22.925781 3.859375 -23.785156 4.796875 -24.609375 C 6.140625 -25.804688 7.679688 -26.710938 9.421875 -27.328125 C 11.171875 -27.941406 12.910156 -28.25 14.640625 -28.25 C 16.128906 -28.25 17.546875 -28.007812 18.890625 -27.53125 C 20.242188 -27.050781 21.414062 -26.316406 22.40625 -25.328125 C 23.40625 -24.347656 24.125 -23.097656 24.5625 -21.578125 C 25 -20.054688 25.054688 -18.253906 24.734375 -16.171875 C 24.535156 -14.734375 24.367188 -13.222656 24.234375 -11.640625 C 24.097656 -10.054688 24.210938 -8.3125 24.578125 -6.40625 C 24.953125 -4.507812 25.769531 -2.375 27.03125 0 L 15.46875 0 C 15.257812 -0.675781 15.132812 -1.34375 15.09375 -2 C 15.050781 -2.65625 15.046875 -3.304688 15.078125 -3.953125 Z M 8.875 -10.234375 C 8.5 -8.710938 8.375 -7.390625 8.5 -6.265625 C 8.632812 -5.140625 8.953125 -4.265625 9.453125 -3.640625 C 9.953125 -3.023438 10.519531 -2.71875 11.15625 -2.71875 C 11.832031 -2.71875 12.535156 -3.09375 13.265625 -3.84375 C 14.003906 -4.59375 14.664062 -5.769531 15.25 -7.375 C 15.832031 -8.988281 16.242188 -11.085938 16.484375 -13.671875 C 16.484375 -14.691406 16.273438 -15.4375 15.859375 -15.90625 C 15.453125 -16.375 14.957031 -16.609375 14.375 -16.609375 C 13.4375 -16.609375 12.410156 -16.054688 11.296875 -14.953125 C 10.179688 -13.859375 9.375 -12.285156 8.875 -10.234375 Z M 8.875 -10.234375 "/></g></g></g><g fill="#343c44" fill-opacity="1"><g transform="translate(131.97433, 253.88947)"><g><path d="M 1.234375 0 C 1.753906 -2.132812 2.164062 -4.515625 2.46875 -7.140625 C 2.78125 -9.765625 2.988281 -12.488281 3.09375 -15.3125 C 3.195312 -18.144531 3.195312 -20.972656 3.09375 -23.796875 C 2.988281 -26.617188 2.78125 -29.34375 2.46875 -31.96875 C 2.164062 -34.59375 1.753906 -36.972656 1.234375 -39.109375 L 12.78125 -39.109375 C 12.257812 -36.972656 11.835938 -34.59375 11.515625 -31.96875 C 11.191406 -29.34375 10.976562 -26.617188 10.875 -23.796875 C 10.769531 -20.972656 10.769531 -18.144531 10.875 -15.3125 C 10.976562 -12.488281 11.191406 -9.769531 11.515625 -7.15625 C 11.835938 -4.550781 12.257812 -2.164062 12.78125 0 Z M 1.234375 0 "/></g></g></g><g fill="#343c44" fill-opacity="1"><g transform="translate(145.048941, 253.88947)"><g><path d="M 0.875 -12.75 C 0.875 -14.914062 1.234375 -16.925781 1.953125 -18.78125 C 2.671875 -20.644531 3.679688 -22.28125 4.984375 -23.6875 C 6.285156 -25.09375 7.820312 -26.191406 9.59375 -26.984375 C 11.375 -27.773438 13.316406 -28.171875 15.421875 -28.171875 C 16.472656 -28.171875 17.5625 -28.046875 18.6875 -27.796875 C 19.820312 -27.546875 20.863281 -27.15625 21.8125 -26.625 C 22.769531 -26.101562 23.554688 -25.410156 24.171875 -24.546875 C 24.785156 -23.679688 25.125 -22.617188 25.1875 -21.359375 C 25.238281 -19.921875 24.90625 -18.609375 24.1875 -17.421875 C 23.46875 -16.234375 22.492188 -15.1875 21.265625 -14.28125 C 20.035156 -13.375 18.695312 -12.613281 17.25 -12 C 15.800781 -11.382812 14.363281 -10.921875 12.9375 -10.609375 C 11.519531 -10.304688 10.253906 -10.15625 9.140625 -10.15625 C 9.222656 -8.539062 9.550781 -6.984375 10.125 -5.484375 C 10.695312 -3.992188 11.492188 -2.78125 12.515625 -1.84375 C 13.546875 -0.90625 14.796875 -0.484375 16.265625 -0.578125 C 17.054688 -0.628906 17.566406 -0.957031 17.796875 -1.5625 C 18.035156 -2.164062 18.054688 -2.894531 17.859375 -3.75 C 17.671875 -4.613281 17.332031 -5.457031 16.84375 -6.28125 C 16.363281 -7.101562 15.816406 -7.734375 15.203125 -8.171875 C 16.347656 -9.078125 17.414062 -9.726562 18.40625 -10.125 C 19.40625 -10.519531 20.316406 -10.71875 21.140625 -10.71875 C 22.222656 -10.71875 23.085938 -10.425781 23.734375 -9.84375 C 24.378906 -9.257812 24.742188 -8.488281 24.828125 -7.53125 C 24.921875 -6.582031 24.644531 -5.550781 24 -4.4375 C 23 -2.769531 21.640625 -1.46875 19.921875 -0.53125 C 18.210938 0.40625 16.40625 0.875 14.5 0.875 C 12.363281 0.875 10.453125 0.507812 8.765625 -0.21875 C 7.078125 -0.945312 5.644531 -1.945312 4.46875 -3.21875 C 3.300781 -4.5 2.410156 -5.957031 1.796875 -7.59375 C 1.179688 -9.238281 0.875 -10.957031 0.875 -12.75 Z M 9.890625 -18.71875 C 9.679688 -17.894531 9.492188 -16.832031 9.328125 -15.53125 C 9.171875 -14.226562 9.09375 -12.859375 9.09375 -11.421875 C 10.53125 -11.515625 11.828125 -12.015625 12.984375 -12.921875 C 14.140625 -13.828125 15.113281 -14.953125 15.90625 -16.296875 C 16.695312 -17.648438 17.238281 -19.015625 17.53125 -20.390625 C 18.03125 -22.648438 18.097656 -24.296875 17.734375 -25.328125 C 17.367188 -26.367188 16.804688 -26.890625 16.046875 -26.890625 C 15.398438 -26.890625 14.6875 -26.5625 13.90625 -25.90625 C 13.132812 -25.25 12.390625 -24.3125 11.671875 -23.09375 C 10.953125 -21.875 10.359375 -20.414062 9.890625 -18.71875 Z M 9.890625 -18.71875 "/></g></g></g><g fill="#343c44" fill-opacity="1"><g transform="translate(170.120621, 253.88947)"><g><path d="M 16.703125 -4.578125 C 15.617188 -2.722656 14.234375 -1.332031 12.546875 -0.40625 C 10.859375 0.507812 9.222656 0.96875 7.640625 0.96875 C 6.265625 0.96875 5.039062 0.625 3.96875 -0.0625 C 2.90625 -0.75 2.179688 -1.78125 1.796875 -3.15625 C 1.421875 -4.539062 1.566406 -6.257812 2.234375 -8.3125 C 2.910156 -10.382812 3.363281 -12.34375 3.59375 -14.1875 C 3.832031 -16.039062 3.925781 -17.816406 3.875 -19.515625 C 3.78125 -21.765625 3.359375 -23.34375 2.609375 -24.25 C 1.867188 -25.164062 0.867188 -25.738281 -0.390625 -25.96875 L -0.09375 -27.296875 C 0.5 -27.296875 1.265625 -27.351562 2.203125 -27.46875 C 3.140625 -27.582031 4.140625 -27.804688 5.203125 -28.140625 C 6.273438 -28.484375 7.332031 -28.96875 8.375 -29.59375 C 9.414062 -30.226562 10.34375 -31.050781 11.15625 -32.0625 C 11.976562 -33.070312 12.597656 -34.304688 13.015625 -35.765625 L 14.328125 -35.765625 C 13.972656 -34.335938 13.671875 -32.910156 13.421875 -31.484375 C 13.171875 -30.066406 12.972656 -28.671875 12.828125 -27.296875 L 17.046875 -27.296875 L 17.265625 -25.96875 L 12.703125 -25.96875 C 12.492188 -23.65625 12.414062 -21.363281 12.46875 -19.09375 C 12.53125 -16.820312 12.722656 -14.570312 13.046875 -12.34375 C 12.285156 -12.226562 11.378906 -11.9375 10.328125 -11.46875 C 9.273438 -11 8.234375 -10.410156 7.203125 -9.703125 C 6.179688 -9.003906 5.3125 -8.222656 4.59375 -7.359375 C 3.875 -6.492188 3.460938 -5.59375 3.359375 -4.65625 C 3.253906 -3.71875 3.597656 -2.78125 4.390625 -1.84375 C 4.804688 -1.375 5.289062 -1 5.84375 -0.71875 C 6.40625 -0.445312 6.960938 -0.3125 7.515625 -0.3125 C 8.066406 -0.3125 8.566406 -0.441406 9.015625 -0.703125 C 9.804688 -1.203125 10.242188 -1.929688 10.328125 -2.890625 C 10.410156 -3.859375 10.238281 -4.847656 9.8125 -5.859375 C 9.394531 -6.878906 8.773438 -7.695312 7.953125 -8.3125 C 9.097656 -9.21875 10.164062 -9.867188 11.15625 -10.265625 C 12.15625 -10.660156 13.066406 -10.859375 13.890625 -10.859375 C 14.972656 -10.859375 15.835938 -10.554688 16.484375 -9.953125 C 17.128906 -9.347656 17.488281 -8.570312 17.5625 -7.625 C 17.632812 -6.675781 17.347656 -5.660156 16.703125 -4.578125 Z M 16.703125 -4.578125 "/></g></g></g><g fill="#343c44" fill-opacity="1"><g transform="translate(187.501873, 253.88947)"><g><path d="M 16.703125 -4.578125 C 15.617188 -2.722656 14.234375 -1.332031 12.546875 -0.40625 C 10.859375 0.507812 9.222656 0.96875 7.640625 0.96875 C 6.265625 0.96875 5.039062 0.625 3.96875 -0.0625 C 2.90625 -0.75 2.179688 -1.78125 1.796875 -3.15625 C 1.421875 -4.539062 1.566406 -6.257812 2.234375 -8.3125 C 2.910156 -10.382812 3.363281 -12.34375 3.59375 -14.1875 C 3.832031 -16.039062 3.925781 -17.816406 3.875 -19.515625 C 3.78125 -21.765625 3.359375 -23.34375 2.609375 -24.25 C 1.867188 -25.164062 0.867188 -25.738281 -0.390625 -25.96875 L -0.09375 -27.296875 C 0.5 -27.296875 1.265625 -27.351562 2.203125 -27.46875 C 3.140625 -27.582031 4.140625 -27.804688 5.203125 -28.140625 C 6.273438 -28.484375 7.332031 -28.96875 8.375 -29.59375 C 9.414062 -30.226562 10.34375 -31.050781 11.15625 -32.0625 C 11.976562 -33.070312 12.597656 -34.304688 13.015625 -35.765625 L 14.328125 -35.765625 C 13.972656 -34.335938 13.671875 -32.910156 13.421875 -31.484375 C 13.171875 -30.066406 12.972656 -28.671875 12.828125 -27.296875 L 17.046875 -27.296875 L 17.265625 -25.96875 L 12.703125 -25.96875 C 12.492188 -23.65625 12.414062 -21.363281 12.46875 -19.09375 C 12.53125 -16.820312 12.722656 -14.570312 13.046875 -12.34375 C 12.285156 -12.226562 11.378906 -11.9375 10.328125 -11.46875 C 9.273438 -11 8.234375 -10.410156 7.203125 -9.703125 C 6.179688 -9.003906 5.3125 -8.222656 4.59375 -7.359375 C 3.875 -6.492188 3.460938 -5.59375 3.359375 -4.65625 C 3.253906 -3.71875 3.597656 -2.78125 4.390625 -1.84375 C 4.804688 -1.375 5.289062 -1 5.84375 -0.71875 C 6.40625 -0.445312 6.960938 -0.3125 7.515625 -0.3125 C 8.066406 -0.3125 8.566406 -0.441406 9.015625 -0.703125 C 9.804688 -1.203125 10.242188 -1.929688 10.328125 -2.890625 C 10.410156 -3.859375 10.238281 -4.847656 9.8125 -5.859375 C 9.394531 -6.878906 8.773438 -7.695312 7.953125 -8.3125 C 9.097656 -9.21875 10.164062 -9.867188 11.15625 -10.265625 C 12.15625 -10.660156 13.066406 -10.859375 13.890625 -10.859375 C 14.972656 -10.859375 15.835938 -10.554688 16.484375 -9.953125 C 17.128906 -9.347656 17.488281 -8.570312 17.5625 -7.625 C 17.632812 -6.675781 17.347656 -5.660156 16.703125 -4.578125 Z M 16.703125 -4.578125 "/></g></g></g><g fill="#343c44" fill-opacity="1"><g transform="translate(204.883124, 253.88947)"><g><path d="M 0.875 -12.75 C 0.875 -14.914062 1.234375 -16.925781 1.953125 -18.78125 C 2.671875 -20.644531 3.679688 -22.28125 4.984375 -23.6875 C 6.285156 -25.09375 7.820312 -26.191406 9.59375 -26.984375 C 11.375 -27.773438 13.316406 -28.171875 15.421875 -28.171875 C 16.472656 -28.171875 17.5625 -28.046875 18.6875 -27.796875 C 19.820312 -27.546875 20.863281 -27.15625 21.8125 -26.625 C 22.769531 -26.101562 23.554688 -25.410156 24.171875 -24.546875 C 24.785156 -23.679688 25.125 -22.617188 25.1875 -21.359375 C 25.238281 -19.921875 24.90625 -18.609375 24.1875 -17.421875 C 23.46875 -16.234375 22.492188 -15.1875 21.265625 -14.28125 C 20.035156 -13.375 18.695312 -12.613281 17.25 -12 C 15.800781 -11.382812 14.363281 -10.921875 12.9375 -10.609375 C 11.519531 -10.304688 10.253906 -10.15625 9.140625 -10.15625 C 9.222656 -8.539062 9.550781 -6.984375 10.125 -5.484375 C 10.695312 -3.992188 11.492188 -2.78125 12.515625 -1.84375 C 13.546875 -0.90625 14.796875 -0.484375 16.265625 -0.578125 C 17.054688 -0.628906 17.566406 -0.957031 17.796875 -1.5625 C 18.035156 -2.164062 18.054688 -2.894531 17.859375 -3.75 C 17.671875 -4.613281 17.332031 -5.457031 16.84375 -6.28125 C 16.363281 -7.101562 15.816406 -7.734375 15.203125 -8.171875 C 16.347656 -9.078125 17.414062 -9.726562 18.40625 -10.125 C 19.40625 -10.519531 20.316406 -10.71875 21.140625 -10.71875 C 22.222656 -10.71875 23.085938 -10.425781 23.734375 -9.84375 C 24.378906 -9.257812 24.742188 -8.488281 24.828125 -7.53125 C 24.921875 -6.582031 24.644531 -5.550781 24 -4.4375 C 23 -2.769531 21.640625 -1.46875 19.921875 -0.53125 C 18.210938 0.40625 16.40625 0.875 14.5 0.875 C 12.363281 0.875 10.453125 0.507812 8.765625 -0.21875 C 7.078125 -0.945312 5.644531 -1.945312 4.46875 -3.21875 C 3.300781 -4.5 2.410156 -5.957031 1.796875 -7.59375 C 1.179688 -9.238281 0.875 -10.957031 0.875 -12.75 Z M 9.890625 -18.71875 C 9.679688 -17.894531 9.492188 -16.832031 9.328125 -15.53125 C 9.171875 -14.226562 9.09375 -12.859375 9.09375 -11.421875 C 10.53125 -11.515625 11.828125 -12.015625 12.984375 -12.921875 C 14.140625 -13.828125 15.113281 -14.953125 15.90625 -16.296875 C 16.695312 -17.648438 17.238281 -19.015625 17.53125 -20.390625 C 18.03125 -22.648438 18.097656 -24.296875 17.734375 -25.328125 C 17.367188 -26.367188 16.804688 -26.890625 16.046875 -26.890625 C 15.398438 -26.890625 14.6875 -26.5625 13.90625 -25.90625 C 13.132812 -25.25 12.390625 -24.3125 11.671875 -23.09375 C 10.953125 -21.875 10.359375 -20.414062 9.890625 -18.71875 Z M 9.890625 -18.71875 "/></g></g></g><g fill="#343c44" fill-opacity="1"><g transform="translate(229.954804, 253.88947)"><g/></g></g><g fill="#343c44" fill-opacity="1"><g transform="translate(240.480587, 253.88947)"><g><path d="M 15.734375 0.171875 C 13.535156 -0.347656 11.550781 -1.238281 9.78125 -2.5 C 8.007812 -3.757812 6.492188 -5.269531 5.234375 -7.03125 C 3.972656 -8.789062 3.003906 -10.6875 2.328125 -12.71875 C 1.648438 -14.757812 1.3125 -16.832031 1.3125 -18.9375 C 1.3125 -21.75 1.800781 -24.421875 2.78125 -26.953125 C 3.769531 -29.492188 5.164062 -31.738281 6.96875 -33.6875 C 8.769531 -35.632812 10.921875 -37.171875 13.421875 -38.296875 C 15.929688 -39.421875 18.691406 -39.984375 21.703125 -39.984375 C 23.171875 -39.984375 24.378906 -39.925781 25.328125 -39.8125 C 26.285156 -39.695312 27.085938 -39.519531 27.734375 -39.28125 C 29.109375 -38.84375 30.644531 -38.625 32.34375 -38.625 C 32.925781 -38.625 33.488281 -38.648438 34.03125 -38.703125 C 34.570312 -38.765625 35.09375 -38.859375 35.59375 -38.984375 L 36.03125 -39.109375 C 35.125 -34.773438 34.507812 -30.132812 34.1875 -25.1875 C 33.78125 -28.226562 33.113281 -30.703125 32.1875 -32.609375 C 31.269531 -34.515625 30.203125 -35.910156 28.984375 -36.796875 C 27.765625 -37.691406 26.484375 -38.140625 25.140625 -38.140625 C 23.640625 -38.140625 22.148438 -37.640625 20.671875 -36.640625 C 19.191406 -35.648438 17.84375 -34.238281 16.625 -32.40625 C 15.414062 -30.570312 14.441406 -28.40625 13.703125 -25.90625 C 12.972656 -23.40625 12.609375 -20.644531 12.609375 -17.625 C 12.609375 -14.457031 12.867188 -11.789062 13.390625 -9.625 C 13.921875 -7.457031 14.648438 -5.710938 15.578125 -4.390625 C 16.503906 -3.078125 17.546875 -2.117188 18.703125 -1.515625 C 19.859375 -0.910156 21.066406 -0.609375 22.328125 -0.609375 C 23.585938 -0.609375 24.851562 -0.859375 26.125 -1.359375 C 27.394531 -1.859375 28.585938 -2.539062 29.703125 -3.40625 C 30.816406 -4.269531 31.796875 -5.265625 32.640625 -6.390625 C 33.492188 -7.523438 34.140625 -8.707031 34.578125 -9.9375 C 34.734375 -8.144531 34.925781 -6.472656 35.15625 -4.921875 C 35.394531 -3.367188 35.6875 -1.726562 36.03125 0 L 35.59375 -0.125 C 34.21875 -0.445312 32.84375 -0.609375 31.46875 -0.609375 C 31 -0.609375 30.539062 -0.585938 30.09375 -0.546875 C 29.65625 -0.503906 29.234375 -0.453125 28.828125 -0.390625 C 27.066406 -0.0664062 25.609375 0.226562 24.453125 0.5 C 23.296875 0.78125 22.085938 0.921875 20.828125 0.921875 C 20.128906 0.921875 19.367188 0.863281 18.546875 0.75 C 17.722656 0.632812 16.785156 0.441406 15.734375 0.171875 Z M 15.734375 0.171875 "/></g></g></g><g fill="#343c44" fill-opacity="1"><g transform="translate(276.274911, 253.88947)"><g><path d="M 13.75 0.875 C 10.96875 0.875 8.617188 0.234375 6.703125 -1.046875 C 4.785156 -2.335938 3.332031 -4.070312 2.34375 -6.25 C 1.363281 -8.4375 0.875 -10.894531 0.875 -13.625 C 0.875 -16.34375 1.363281 -18.796875 2.34375 -20.984375 C 3.332031 -23.171875 4.785156 -24.898438 6.703125 -26.171875 C 8.617188 -27.441406 10.96875 -28.078125 13.75 -28.078125 C 16.539062 -28.078125 18.898438 -27.441406 20.828125 -26.171875 C 22.765625 -24.898438 24.226562 -23.171875 25.21875 -20.984375 C 26.21875 -18.796875 26.71875 -16.34375 26.71875 -13.625 C 26.71875 -10.894531 26.21875 -8.4375 25.21875 -6.25 C 24.226562 -4.070312 22.765625 -2.335938 20.828125 -1.046875 C 18.898438 0.234375 16.539062 0.875 13.75 0.875 Z M 16 -26.40625 C 15.03125 -26.289062 14.117188 -25.726562 13.265625 -24.71875 C 12.421875 -23.707031 11.675781 -22.414062 11.03125 -20.84375 C 10.382812 -19.28125 9.847656 -17.578125 9.421875 -15.734375 C 9.003906 -13.890625 8.71875 -12.066406 8.5625 -10.265625 C 8.414062 -8.460938 8.421875 -6.820312 8.578125 -5.34375 C 8.742188 -3.863281 9.09375 -2.695312 9.625 -1.84375 C 10.15625 -1 10.890625 -0.632812 11.828125 -0.75 C 12.765625 -0.863281 13.617188 -1.414062 14.390625 -2.40625 C 15.171875 -3.40625 15.859375 -4.6875 16.453125 -6.25 C 17.054688 -7.820312 17.554688 -9.523438 17.953125 -11.359375 C 18.347656 -13.191406 18.617188 -15.015625 18.765625 -16.828125 C 18.910156 -18.648438 18.910156 -20.300781 18.765625 -21.78125 C 18.617188 -23.257812 18.316406 -24.421875 17.859375 -25.265625 C 17.410156 -26.117188 16.789062 -26.5 16 -26.40625 Z M 16 -26.40625 "/></g></g></g><g fill="#343c44" fill-opacity="1"><g transform="translate(104.72988, 284.80753)"><g><path d="M 7.78125 -2.84375 C 7.78125 -2.425781 7.6875 -2.03125 7.5 -1.65625 C 7.3125 -1.269531 7.054688 -0.957031 6.734375 -0.71875 C 6.117188 -0.238281 5.289062 0 4.25 0 L 1.125 0 L 1.125 -10.203125 L 3.890625 -10.203125 C 5.378906 -10.203125 6.347656 -9.738281 6.796875 -8.8125 C 6.953125 -8.488281 7.03125 -8.15625 7.03125 -7.8125 C 7.03125 -7.476562 7.003906 -7.210938 6.953125 -7.015625 C 6.898438 -6.816406 6.820312 -6.628906 6.71875 -6.453125 C 6.488281 -6.054688 6.191406 -5.78125 5.828125 -5.625 C 6.429688 -5.46875 6.910156 -5.148438 7.265625 -4.671875 C 7.609375 -4.179688 7.78125 -3.570312 7.78125 -2.84375 Z M 5.984375 -7.65625 C 5.984375 -8.675781 5.285156 -9.1875 3.890625 -9.1875 L 2.171875 -9.1875 L 2.171875 -6.015625 L 4.1875 -6.015625 C 4.726562 -6.015625 5.160156 -6.148438 5.484375 -6.421875 C 5.816406 -6.691406 5.984375 -7.101562 5.984375 -7.65625 Z M 6.734375 -3.046875 C 6.734375 -3.347656 6.675781 -3.613281 6.5625 -3.84375 C 6.445312 -4.070312 6.300781 -4.269531 6.125 -4.4375 C 5.71875 -4.789062 5.242188 -4.96875 4.703125 -4.96875 L 2.171875 -4.96875 L 2.171875 -1 L 4.546875 -1 C 5.179688 -1 5.707031 -1.1875 6.125 -1.5625 C 6.53125 -1.9375 6.734375 -2.429688 6.734375 -3.046875 Z M 6.734375 -3.046875 "/></g></g></g><g fill="#343c44" fill-opacity="1"><g transform="translate(112.514872, 284.80753)"><g><path d="M 2.171875 -5.046875 L 4.546875 -5.046875 C 5.140625 -5.046875 5.625 -5.242188 6 -5.640625 C 6.382812 -6.046875 6.578125 -6.550781 6.578125 -7.15625 C 6.578125 -7.75 6.394531 -8.238281 6.03125 -8.625 C 5.65625 -9 5.160156 -9.1875 4.546875 -9.1875 L 2.171875 -9.1875 Z M 7.640625 -7.125 C 7.640625 -6.238281 7.320312 -5.5 6.6875 -4.90625 C 6.125 -4.382812 5.453125 -4.097656 4.671875 -4.046875 L 7.796875 0 L 6.390625 0 L 3.40625 -4.03125 L 2.171875 -4.03125 L 2.171875 0 L 1.125 0 L 1.125 -10.203125 L 4.390625 -10.203125 C 5.304688 -10.203125 6.070312 -9.914062 6.6875 -9.34375 C 7.320312 -8.738281 7.640625 -8 7.640625 -7.125 Z M 7.640625 -7.125 "/></g></g></g><g fill="#343c44" fill-opacity="1"><g transform="translate(120.374868, 284.80753)"><g><path d="M 10.109375 -5.125 C 10.109375 -6.28125 9.695312 -7.265625 8.875 -8.078125 C 8.0625 -8.898438 7.070312 -9.3125 5.90625 -9.3125 C 4.757812 -9.3125 3.773438 -8.898438 2.953125 -8.078125 C 2.128906 -7.265625 1.71875 -6.28125 1.71875 -5.125 C 1.71875 -3.96875 2.128906 -2.976562 2.953125 -2.15625 C 3.773438 -1.34375 4.757812 -0.9375 5.90625 -0.9375 C 7.070312 -0.9375 8.0625 -1.34375 8.875 -2.15625 C 9.695312 -2.976562 10.109375 -3.96875 10.109375 -5.125 Z M 11.15625 -5.125 C 11.15625 -4.40625 11.019531 -3.726562 10.75 -3.09375 C 10.46875 -2.445312 10.09375 -1.890625 9.625 -1.421875 C 9.144531 -0.941406 8.585938 -0.566406 7.953125 -0.296875 C 7.304688 -0.015625 6.625 0.125 5.90625 0.125 C 5.1875 0.125 4.515625 -0.015625 3.890625 -0.296875 C 3.242188 -0.566406 2.6875 -0.941406 2.21875 -1.421875 C 1.738281 -1.890625 1.363281 -2.445312 1.09375 -3.09375 C 0.8125 -3.726562 0.671875 -4.40625 0.671875 -5.125 C 0.671875 -5.84375 0.8125 -6.523438 1.09375 -7.171875 C 1.363281 -7.804688 1.738281 -8.359375 2.21875 -8.828125 C 2.6875 -9.304688 3.242188 -9.679688 3.890625 -9.953125 C 4.515625 -10.222656 5.1875 -10.359375 5.90625 -10.359375 C 6.625 -10.359375 7.304688 -10.222656 7.953125 -9.953125 C 8.585938 -9.679688 9.144531 -9.304688 9.625 -8.828125 C 10.09375 -8.359375 10.46875 -7.804688 10.75 -7.171875 C 11.019531 -6.523438 11.15625 -5.84375 11.15625 -5.125 Z M 11.15625 -5.125 "/></g></g></g><g fill="#343c44" fill-opacity="1"><g transform="translate(131.909859, 284.80753)"><g><path d="M 9.21875 0.828125 L 5.875 -8.0625 L 2.53125 0.828125 L 0.15625 -10.203125 L 1.234375 -10.203125 L 2.8125 -2.796875 L 5.875 -10.796875 L 8.9375 -2.796875 L 10.53125 -10.203125 L 11.59375 -10.203125 Z M 9.21875 0.828125 "/></g></g></g><g fill="#343c44" fill-opacity="1"><g transform="translate(143.354855, 284.80753)"><g><path d="M 3.953125 -4.8125 C 1.878906 -5.289062 0.84375 -6.179688 0.84375 -7.484375 C 0.84375 -8.441406 1.175781 -9.160156 1.84375 -9.640625 C 2.507812 -10.109375 3.296875 -10.34375 4.203125 -10.34375 C 6.191406 -10.34375 7.367188 -9.601562 7.734375 -8.125 L 6.59375 -8.125 C 6.394531 -9.007812 5.597656 -9.453125 4.203125 -9.453125 C 3.222656 -9.453125 2.535156 -9.160156 2.140625 -8.578125 C 1.992188 -8.359375 1.921875 -8.082031 1.921875 -7.75 C 1.921875 -7.125 2.257812 -6.640625 2.9375 -6.296875 C 3.257812 -6.128906 3.941406 -5.910156 4.984375 -5.640625 C 6.023438 -5.367188 6.78125 -5.066406 7.25 -4.734375 C 7.894531 -4.273438 8.21875 -3.632812 8.21875 -2.8125 C 8.21875 -1.78125 7.8125 -1 7 -0.46875 C 6.320312 -0.03125 5.484375 0.1875 4.484375 0.1875 C 2.222656 0.1875 0.914062 -0.671875 0.5625 -2.390625 L 1.796875 -2.390625 C 1.984375 -1.304688 2.878906 -0.765625 4.484375 -0.765625 C 5.617188 -0.765625 6.414062 -1.078125 6.875 -1.703125 C 7.050781 -1.953125 7.140625 -2.296875 7.140625 -2.734375 C 7.140625 -3.148438 6.972656 -3.492188 6.640625 -3.765625 C 6.171875 -4.140625 5.273438 -4.488281 3.953125 -4.8125 Z M 3.953125 -4.8125 "/></g></g></g><g fill="#343c44" fill-opacity="1"><g transform="translate(151.664855, 284.80753)"><g/></g></g><g fill="#343c44" fill-opacity="1"><g transform="translate(155.414855, 284.80753)"><g><path d="M 2.171875 -1.046875 L 5.8125 -1.046875 L 5.8125 0 L 1.125 0 L 1.125 -10.203125 L 2.171875 -10.203125 Z M 2.171875 -1.046875 "/></g></g></g><g fill="#343c44" fill-opacity="1"><g transform="translate(161.234851, 284.80753)"><g><path d="M 2.78125 -3.75 L 6.484375 -3.75 L 4.640625 -8.4375 Z M 9.109375 0 L 7.96875 0 L 6.875 -2.78125 L 2.390625 -2.78125 L 1.296875 0 L 0.15625 0 L 4.640625 -10.90625 Z M 9.109375 0 "/></g></g></g><g fill="#343c44" fill-opacity="1"><g transform="translate(170.18984, 284.80753)"><g><path d="M 3.953125 -4.8125 C 1.878906 -5.289062 0.84375 -6.179688 0.84375 -7.484375 C 0.84375 -8.441406 1.175781 -9.160156 1.84375 -9.640625 C 2.507812 -10.109375 3.296875 -10.34375 4.203125 -10.34375 C 6.191406 -10.34375 7.367188 -9.601562 7.734375 -8.125 L 6.59375 -8.125 C 6.394531 -9.007812 5.597656 -9.453125 4.203125 -9.453125 C 3.222656 -9.453125 2.535156 -9.160156 2.140625 -8.578125 C 1.992188 -8.359375 1.921875 -8.082031 1.921875 -7.75 C 1.921875 -7.125 2.257812 -6.640625 2.9375 -6.296875 C 3.257812 -6.128906 3.941406 -5.910156 4.984375 -5.640625 C 6.023438 -5.367188 6.78125 -5.066406 7.25 -4.734375 C 7.894531 -4.273438 8.21875 -3.632812 8.21875 -2.8125 C 8.21875 -1.78125 7.8125 -1 7 -0.46875 C 6.320312 -0.03125 5.484375 0.1875 4.484375 0.1875 C 2.222656 0.1875 0.914062 -0.671875 0.5625 -2.390625 L 1.796875 -2.390625 C 1.984375 -1.304688 2.878906 -0.765625 4.484375 -0.765625 C 5.617188 -0.765625 6.414062 -1.078125 6.875 -1.703125 C 7.050781 -1.953125 7.140625 -2.296875 7.140625 -2.734375 C 7.140625 -3.148438 6.972656 -3.492188 6.640625 -3.765625 C 6.171875 -4.140625 5.273438 -4.488281 3.953125 -4.8125 Z M 3.953125 -4.8125 "/></g></g></g><g fill="#343c44" fill-opacity="1"><g transform="translate(178.499841, 284.80753)"><g><path d="M 2.171875 0 L 1.125 0 L 1.125 -10.203125 L 2.171875 -10.203125 L 2.171875 -5.609375 L 6.8125 -5.609375 L 6.8125 -10.203125 L 7.859375 -10.203125 L 7.859375 0 L 6.8125 0 L 6.8125 -4.5625 L 2.171875 -4.5625 Z M 2.171875 0 "/></g></g></g><g fill="#343c44" fill-opacity="1"><g transform="translate(187.184842, 284.80753)"><g><path d="M 7.1875 0 L 1.125 0 L 1.125 -10.203125 L 7.1875 -10.203125 L 7.1875 -9.21875 L 2.171875 -9.21875 L 2.171875 -5.59375 L 7.03125 -5.59375 L 7.03125 -4.609375 L 2.171875 -4.609375 L 2.171875 -0.96875 L 7.1875 -0.96875 Z M 7.1875 0 "/></g></g></g><g fill="#343c44" fill-opacity="1"><g transform="translate(195.194836, 284.80753)"><g><path d="M 3.953125 -4.8125 C 1.878906 -5.289062 0.84375 -6.179688 0.84375 -7.484375 C 0.84375 -8.441406 1.175781 -9.160156 1.84375 -9.640625 C 2.507812 -10.109375 3.296875 -10.34375 4.203125 -10.34375 C 6.191406 -10.34375 7.367188 -9.601562 7.734375 -8.125 L 6.59375 -8.125 C 6.394531 -9.007812 5.597656 -9.453125 4.203125 -9.453125 C 3.222656 -9.453125 2.535156 -9.160156 2.140625 -8.578125 C 1.992188 -8.359375 1.921875 -8.082031 1.921875 -7.75 C 1.921875 -7.125 2.257812 -6.640625 2.9375 -6.296875 C 3.257812 -6.128906 3.941406 -5.910156 4.984375 -5.640625 C 6.023438 -5.367188 6.78125 -5.066406 7.25 -4.734375 C 7.894531 -4.273438 8.21875 -3.632812 8.21875 -2.8125 C 8.21875 -1.78125 7.8125 -1 7 -0.46875 C 6.320312 -0.03125 5.484375 0.1875 4.484375 0.1875 C 2.222656 0.1875 0.914062 -0.671875 0.5625 -2.390625 L 1.796875 -2.390625 C 1.984375 -1.304688 2.878906 -0.765625 4.484375 -0.765625 C 5.617188 -0.765625 6.414062 -1.078125 6.875 -1.703125 C 7.050781 -1.953125 7.140625 -2.296875 7.140625 -2.734375 C 7.140625 -3.148438 6.972656 -3.492188 6.640625 -3.765625 C 6.171875 -4.140625 5.273438 -4.488281 3.953125 -4.8125 Z M 3.953125 -4.8125 "/></g></g></g><g fill="#343c44" fill-opacity="1"><g transform="translate(203.504837, 284.80753)"><g/></g></g><g fill="#343c44" fill-opacity="1"><g transform="translate(207.254837, 284.80753)"><g><path d="M 3.9375 -5.171875 C 3.363281 -4.753906 2.96875 -4.4375 2.75 -4.21875 C 2.257812 -3.726562 2.015625 -3.269531 2.015625 -2.84375 C 2.015625 -2.34375 2.195312 -1.894531 2.5625 -1.5 C 2.925781 -1.101562 3.363281 -0.90625 3.875 -0.90625 C 4.414062 -0.90625 5.023438 -1.21875 5.703125 -1.84375 C 5.867188 -2 6.03125 -2.15625 6.1875 -2.3125 Z M 3.859375 -6.859375 C 3.972656 -6.722656 4.085938 -6.59375 4.203125 -6.46875 C 4.347656 -6.570312 4.507812 -6.6875 4.6875 -6.8125 C 4.84375 -6.914062 4.988281 -7.039062 5.125 -7.1875 C 5.445312 -7.507812 5.609375 -7.851562 5.609375 -8.21875 C 5.609375 -8.59375 5.484375 -8.882812 5.234375 -9.09375 C 4.984375 -9.300781 4.707031 -9.414062 4.40625 -9.4375 C 4.09375 -9.445312 3.8125 -9.351562 3.5625 -9.15625 C 3.3125 -8.945312 3.1875 -8.625 3.1875 -8.1875 C 3.1875 -7.75 3.410156 -7.304688 3.859375 -6.859375 Z M 8.921875 -3.96875 C 8.773438 -3.757812 8.328125 -3.203125 7.578125 -2.296875 L 9.328125 0 L 7.953125 0.03125 L 6.84375 -1.421875 C 6.34375 -0.921875 5.941406 -0.578125 5.640625 -0.390625 C 5.023438 -0.00390625 4.484375 0.1875 4.015625 0.1875 C 3.546875 0.1875 3.132812 0.109375 2.78125 -0.046875 C 2.40625 -0.179688 2.085938 -0.382812 1.828125 -0.65625 C 1.253906 -1.21875 0.96875 -1.925781 0.96875 -2.78125 C 0.96875 -3.757812 1.457031 -4.609375 2.4375 -5.328125 C 2.707031 -5.523438 2.992188 -5.734375 3.296875 -5.953125 C 2.578125 -6.785156 2.21875 -7.519531 2.21875 -8.15625 C 2.21875 -8.789062 2.414062 -9.316406 2.8125 -9.734375 C 3.21875 -10.140625 3.75 -10.34375 4.40625 -10.34375 C 5.039062 -10.34375 5.5625 -10.148438 5.96875 -9.765625 C 6.375 -9.367188 6.578125 -8.859375 6.578125 -8.234375 C 6.578125 -7.578125 6.191406 -6.925781 5.421875 -6.28125 C 5.203125 -6.101562 5 -5.941406 4.8125 -5.796875 L 6.921875 -3.109375 C 7.117188 -3.347656 7.3125 -3.585938 7.5 -3.828125 L 8.0625 -4.546875 Z M 8.921875 -3.96875 "/></g></g></g><g fill="#343c44" fill-opacity="1"><g transform="translate(217.289828, 284.80753)"><g/></g></g><g fill="#343c44" fill-opacity="1"><g transform="translate(221.039828, 284.80753)"><g><path d="M 7.78125 -2.84375 C 7.78125 -2.425781 7.6875 -2.03125 7.5 -1.65625 C 7.3125 -1.269531 7.054688 -0.957031 6.734375 -0.71875 C 6.117188 -0.238281 5.289062 0 4.25 0 L 1.125 0 L 1.125 -10.203125 L 3.890625 -10.203125 C 5.378906 -10.203125 6.347656 -9.738281 6.796875 -8.8125 C 6.953125 -8.488281 7.03125 -8.15625 7.03125 -7.8125 C 7.03125 -7.476562 7.003906 -7.210938 6.953125 -7.015625 C 6.898438 -6.816406 6.820312 -6.628906 6.71875 -6.453125 C 6.488281 -6.054688 6.191406 -5.78125 5.828125 -5.625 C 6.429688 -5.46875 6.910156 -5.148438 7.265625 -4.671875 C 7.609375 -4.179688 7.78125 -3.570312 7.78125 -2.84375 Z M 5.984375 -7.65625 C 5.984375 -8.675781 5.285156 -9.1875 3.890625 -9.1875 L 2.171875 -9.1875 L 2.171875 -6.015625 L 4.1875 -6.015625 C 4.726562 -6.015625 5.160156 -6.148438 5.484375 -6.421875 C 5.816406 -6.691406 5.984375 -7.101562 5.984375 -7.65625 Z M 6.734375 -3.046875 C 6.734375 -3.347656 6.675781 -3.613281 6.5625 -3.84375 C 6.445312 -4.070312 6.300781 -4.269531 6.125 -4.4375 C 5.71875 -4.789062 5.242188 -4.96875 4.703125 -4.96875 L 2.171875 -4.96875 L 2.171875 -1 L 4.546875 -1 C 5.179688 -1 5.707031 -1.1875 6.125 -1.5625 C 6.53125 -1.9375 6.734375 -2.429688 6.734375 -3.046875 Z M 6.734375 -3.046875 "/></g></g></g><g fill="#343c44" fill-opacity="1"><g transform="translate(228.82482, 284.80753)"><g><path d="M 7.1875 0 L 1.125 0 L 1.125 -10.203125 L 7.1875 -10.203125 L 7.1875 -9.21875 L 2.171875 -9.21875 L 2.171875 -5.59375 L 7.03125 -5.59375 L 7.03125 -4.609375 L 2.171875 -4.609375 L 2.171875 -0.96875 L 7.1875 -0.96875 Z M 7.1875 0 "/></g></g></g><g fill="#343c44" fill-opacity="1"><g transform="translate(236.834814, 284.80753)"><g><path d="M 2.78125 -3.75 L 6.484375 -3.75 L 4.640625 -8.4375 Z M 9.109375 0 L 7.96875 0 L 6.875 -2.78125 L 2.390625 -2.78125 L 1.296875 0 L 0.15625 0 L 4.640625 -10.90625 Z M 9.109375 0 "/></g></g></g><g fill="#343c44" fill-opacity="1"><g transform="translate(245.789803, 284.80753)"><g><path d="M 8.5 -3.375 C 8.5 -2.269531 8.140625 -1.398438 7.421875 -0.765625 C 6.742188 -0.160156 5.835938 0.140625 4.703125 0.140625 C 3.566406 0.140625 2.660156 -0.160156 1.984375 -0.765625 C 1.265625 -1.398438 0.90625 -2.269531 0.90625 -3.375 L 0.90625 -10.203125 L 1.953125 -10.203125 L 1.953125 -3.21875 C 1.953125 -2.445312 2.234375 -1.859375 2.796875 -1.453125 C 3.273438 -1.097656 3.910156 -0.921875 4.703125 -0.921875 C 5.953125 -0.921875 6.796875 -1.335938 7.234375 -2.171875 C 7.378906 -2.460938 7.453125 -2.8125 7.453125 -3.21875 L 7.453125 -10.203125 L 8.5 -10.203125 Z M 8.5 -3.375 "/></g></g></g><g fill="#343c44" fill-opacity="1"><g transform="translate(254.894802, 284.80753)"><g><path d="M 0.296875 -9.25 L 0.296875 -10.234375 L 6.296875 -10.234375 L 6.296875 -9.25 L 3.828125 -9.25 L 3.828125 -0.03125 L 2.78125 -0.03125 L 2.78125 -9.25 Z M 0.296875 -9.25 "/></g></g></g><g fill="#343c44" fill-opacity="1"><g transform="translate(261.194797, 284.80753)"><g><path d="M 5.0625 -4.796875 L 5.0625 0 L 4.015625 0 L 4.015625 -4.796875 L 0.15625 -10.203125 L 1.5 -10.203125 L 4.546875 -5.828125 L 7.59375 -10.203125 L 8.921875 -10.203125 Z M 5.0625 -4.796875 "/></g></g></g></svg>